<?xml version="1.0" encoding="utf-8"?>

<!DOCTYPE svg PUBLIC "-//W3C//DTD SVG 1.1//EN" "http://www.w3.org/Graphics/SVG/1.1/DTD/svg11.dtd">
<svg version="1.1" id="Layer_1" xmlns="http://www.w3.org/2000/svg" xmlns:xlink="http://www.w3.org/1999/xlink" x="0px" y="0px"
	 viewBox="0 0 1920 1088" enable-background="new 0 0 1920 1088" xml:space="preserve">
<g>
	<path fill="#FF7F27" stroke="#FF7F27" stroke-width="0.3" d="M0,0h1920v609.23c-22.01,0.14-44.01,0.05-66.01,0.03
		c-1.73-0.14-3.08,1-4.41,1.87c-2.3999-0.06-4.7799-0.23-7.14-0.47c-5.96-7.66-12.8099-14.58-19.1899-21.8799
		c-11.1-12.64-22.0699-25.39-32.63-38.47c-13.92-17.46-26.14-36.38-35.17-56.84c-12.33-28.04-21.8199-57.2-31.83-86.12
		c-0.7-1.93-1.39-4.13-3.55-4.84c-8.8899-4.16-18.6899-5.6-28.0099-8.45c-12.39-3.16-24.53-7.28-36.9501-10.27
		c-2.48-14.16-4.38-28.42-6.5599-42.62c-1.29-6.93-1.51-14.08-3.49-20.86c-13.7001-0.92-27.39-1.72-41.1001-2.46
		c-2.9399,0.18-5.46-2.02-5.6899-4.94c-1.4401-12.28-1.71-24.65-3.17-36.93c-0.4399-5.23-0.65-10.48-1.1-15.71
		c-0.1801-2.85-0.28-5.71-0.66-8.54c-0.46-6.16-0.96-12.32-1.4-18.48c-0.1699-3.17-0.25-6.34-0.6399-9.48
		c-2.13-30.17-4.2301-60.34-6.38-90.51c-0.14-2.84-0.2201-5.69-0.5901-8.52c-0.9199-13.17-1.6699-26.36-2.5399-39.53
		c-0.3401-2.66-0.49-5.44-1.7201-7.87c-16.33-0.8-32.72-0.11-49.0699-0.34c-11.37,0.35-22.6801-0.91-34.02-1.29
		c-2.33,0.07-3.74,2.31-5.29,3.75c-2.1799,3.09-1.2699,7.03-1.3899,10.55c-0.05,12.33,0.45,24.69-0.49,37
		c-0.3401,8-0.04,16.02-0.0601,24.03c-12.25-0.43-24.49-1.3-36.75-1.04c-9.49,0.42-18.88-1.95-28.38-0.7
		c-0.61,0.75-1.23,1.5-1.86,2.22c-0.3201,0.31-0.96,0.93-1.28,1.23c-1.75,13.69-0.66,27.53-1.77,41.26
		c-0.1899,7.66,0.2201,15.35-0.61,22.99c0,3.81-1.28,8.39,1.76,11.42c0,1.26,0.03,2.52,0.09,3.78
		c-15.2799,1.49-30.6599,0.6-45.99,0.82c-10.11-0.64-20.27-0.8-30.3199-2.18c-0.27-4.13,0.51-8.41-0.66-12.44l-0.9399-0.51
		l0.0599-0.47c1.03-3.25,1.0701-6.7,0.51-10.04c-1.0499-5.97-0.23-12.05-0.8199-18.05c-0.63-5.75-0.12-11.54-0.52-17.3
		c-0.7001-7-0.09-14.07-1.15-21.05c-0.01-8.21-0.4301-16.41-1.01-24.61c-0.4299-0.2-1.28-0.6-1.71-0.81
		c-10.53-3.37-21.64-0.28-32.41-0.45c-11.02,1.15-22.42,0-33.15,3.06c-0.4299,0.07-1.2799,0.2-1.71,0.27
		c-1.6801,33.5-2.97,67.03-4.13,100.55c0,4.02,0.12,8.06-0.4,12.05c-14.27,1.39-28.5,3.01-42.75,4.54
		c-2.65,0.23-5.3099,0.49-7.85,1.24c-0.4,0.16-1.1801,0.46-1.5699,0.61c-1.4501,11.2-1.2201,22.54-2.12,33.8
		c-1.65,28.59-3.3,57.2-6.1001,85.7c-2.27,22.69-5.11,45.41-10.76,67.54c-4.74,19.21-12.2899,37.94-23.76,54.15
		c-9.0399,13.11-20.1799,24.66-32.62,34.57c-13.21,11.06-27.7,20.47-42.2799,29.6c-32.51,20.19-66.61,37.64-99.98,56.32
		c-25.93,0.44-51.87,0.05-77.81,0.19c-211.33-0.01-422.67,0-634,0c-4.44,0.02-8.9-0.3-13.32,0.26c-0.22,0.43-0.67,1.29-0.9,1.73
		c-1.61,0.36-3.23,0.64-4.86,0.92c-0.13-4.86-0.12-9.72,0.47-14.54c0.51-5.48,1.91-11.32-0.83-16.46c6.59-4.41,14.85-4.1,22.44-3.96
		c16.46-0.17,32.97,0.6,49.38-0.96c7.35-1.93,13.44-6.86,19.65-11.03c1.32-0.45,2.68-0.82,3.97-1.36c1.42-2.26,1.65-5.03,2.31-7.57
		c0.95-4.83,2.9-9.44,3.39-14.37c1.9-20.62,3.74-41.27,4.6-61.97c0.13-10.66-0.05-21.33,0.06-31.99c0.17-8.01-0.95-15.99-0.67-23.99
		c0.31-7.36-0.86-14.67-0.74-22.02c-0.02-4.34,0.26-8.68-0.04-13.01c-0.28-4.86-3.52-8.74-6.13-12.59c-1.28-0.2-2.54-0.42-3.8-0.66
		c-3.78-2.44-7.49-5.04-11.58-6.94c-4.69-1.22-9.59-0.98-14.39-1.02c-5.7,0.01-11.82,0.17-16.65,3.6
		c-5.32,2.64-8.47,8.18-9.75,13.78c-1.37,12.24-0.46,24.57-0.74,36.85c-0.29,7.68,0.87,15.32,0.62,23
		c-0.25,9.67,0.55,19.34,1.36,28.97c-1.31,11.37-0.96,22.96-3.56,34.18c-1.2,6.59-5.48,12.36-10.82,16.24
		c-9.57,0.38-19.22,0.42-28.79-0.14c-0.83-3.28-1.98-6.46-3.34-9.54c-2.16-4.6-1.23-9.81-1.36-14.7
		c0.29-18.66-0.62-37.35,0.71-55.97c0.07-22.34-0.1-44.69,0.06-67.04c0.94-11.98,0.5-24,0.59-36c-0.03-14.34,0.05-28.67-0.02-43
		c-1.3-19.29-0.22-38.65-0.74-57.96c-1.08-12.99-0.43-26.04-0.53-39.05c0.16-4.95-0.07-10.93-4.96-13.67
		c0.06-5.12-2.84-9.66-6.25-13.24c-1.39-1.55-3.57-1.85-5.48-2.31c-8.48-1.59-17.14-3.53-25.79-2.12
		c-5.06,0.89-10.17,1.58-15.18,2.77c-3.43,0.63-6.07,3.31-7.75,6.23c-1.72,4.03-1.67,8.52-2.35,12.79
		c-2.34,12.06-0.14,24.42-1.58,36.58c-0.25,32.66-0.01,65.32-0.12,97.98c-0.11,5.68,0.82,11.32,0.63,17
		c-0.38,9.37,1.27,18.66,0.81,28.04c0.84,7.31-0.09,14.61-0.19,21.94c-1.29,8.97-0.06,18.05-1.03,27.04
		c-0.57,6.57,0.17,13.17-0.35,19.74c-0.54,4.6-4.61,7.93-8.97,8.82c-6.31,2.51-12.89-0.38-19.32-0.52c0.25-0.97,0.49-1.93,0.74-2.89
		c-2.72-3.16-5.87-6.75-5.18-11.25c1.05-21.29,1.89-42.6,3.02-63.88c0.02-19.36-0.04-38.71,0.02-58.07
		c-1.04-19.93-1.42-39.89-2.33-59.83c-0.59-4.15-0.71-8.73-3.54-12.09c-2.57-4.01-5.71-7.95-10.25-9.8
		c-10.25-4.14-21.53-2.5-32.11-0.78c-6.55,0.51-10.55,7.04-12.06,12.81c-0.58,9.22-0.84,18.44-0.89,27.67
		c-1.28,9.37,0.14,18.85-1.2,28.21c-0.35,3.94-0.19,7.89-0.2,11.84c0.02,29.67-0.02,59.33,0.02,89c0,4.67-0.71,9.31-0.64,13.99
		c0.12,15.7-0.49,31.45,1.33,47.08c1.01,9.83,3.64,19.73,8.82,28.21c5.65,6.67,13.04,13.42,22.26,13.73
		c9.68,0.73,19.29,2.31,29.01,2.41c7.57-0.1,15.15,0.39,22.69,0.89c3.48,2.44,7.08,6.04,6.82,10.64
		c-0.04,30.66-0.01,61.33-0.02,91.99c-61.52,0.01-123.04,0.03-184.56-0.01c-1.71-0.15-3.23,0.43-4.39,1.7
		c2.14,0.24,4.29,0.4,6.44,0.43c60.81-0.02,121.62-0.03,182.43,0.01l-0.09,1.09c-63.1,0.21-126.21,0.02-189.31,0.09V0 M703.48,87.6
		c-36.53,3.06-72.66,12.67-105.35,29.37c-24.95,12.38-48.07,28.66-67.73,48.42c-35.88,34.37-60.86,80.03-70.18,128.86
		c-3.11,17.4-4.79,35.09-4.13,52.76c1.13,8.11,0.81,16.38,2.41,24.43c6.59,48.39,29.16,94.08,62.14,129.92
		c9.1,8.9,17.7,18.37,27.79,26.2c42.11,34.32,94.62,55.44,148.63,60.74c9.99,0.5,19.91,2.06,29.94,1.57
		c9.36,0.46,18.6-1.08,27.93-1.52c55.3-5.21,109.09-26.99,151.76-62.65c6.59-5.39,12.48-11.53,18.94-17.06
		c3.74-4.59,8.08-8.62,11.85-13.18c28.49-32.87,48.27-73.38,55.71-116.3c2.17-10.26,2.28-20.79,3.63-31.16
		c0.07-6.67,0.13-13.35-0.04-20.01c-1.17-8.05-1.19-16.21-2.52-24.24c-2.55-16.29-6.53-32.38-12.32-47.84
		c-18.52-50-54.14-92.94-98.42-122.33C830.97,98.49,766.33,82.64,703.48,87.6z"/>
	<path fill="#030101" stroke="#030101" stroke-width="0.3" d="M1491.6899,79.46c1.55-1.44,2.9601-3.68,5.29-3.75
		c11.34,0.38,22.65,1.64,34.02,1.29c16.35,0.23,32.74-0.46,49.0699,0.34c-1.37,4.75,0.05,9.66,0.14,14.47
		c3.36,50.4,6.8101,100.78,10.54,151.14c1.98,26.17,3.79,52.35,6.33,78.47c3.5901,44.11,8.4,88.21,16.75,131.72
		c2.51,12.61,5.53,25.1,8.26,37.67c0.23,0.55,0.6901,1.65,0.92,2.2c0.4,2.05,0.8199,4.1,1.26,6.16c0.24,0.63,0.71,1.88,0.9399,2.5
		l0.16,0.55c0.03,0.11,0.09,0.33,0.12,0.44c0.54,2.06,1.04,4.15,1.5701,6.23c0.22,0.56,0.6599,1.66,0.8799,2.21
		c0.3301,1.58,0.6801,3.16,1.05,4.75c0.23,0.55,0.6901,1.66,0.92,2.22c5.2999,18.65,11.83,36.92,17.5299,55.45
		c4.0901,12.37,8.4901,24.62,12.67,36.95c0.86,0.03,1.73,0.08,2.63,0.13c4.04,0.63,8.15,0.72,12.26,0.64
		c31.66-0.11,63.3199,0.07,94.97-0.09c-0.5-0.71-0.98-1.42-1.4399-2.11c-22.5701-31.6-46.75-62.07-68.1-94.54
		c-10.0601-14.74-19.27-30.16-26.38-46.56c-17.24-38.2-22.54-80.23-28.7301-121.28c-1.22-7.75-2.0099-15.55-3.36-23.28
		c-12.34-0.44-24.6599-1.22-36.98-2.1c-2.4-0.14-4.74-0.59-7.01-1.28c0.5901-2.32,0.54-4.73,0.3-7.09
		c0.23,2.92,2.75,5.12,5.6899,4.94c13.7101,0.74,27.4,1.54,41.1001,2.46c-1.7401,4.3-0.39,8.91,0.25,13.29
		c6.85,43.23,11.12,87.72,28.84,128.24c13.9299,32.2,34.5399,60.83,54.4199,89.52c14.1101,19.76,28.2401,39.5,42.7401,58.96
		c1.1399,0,2.3099,0.02,3.48,0.06c5.97,1.43,12.13,0.73,18.21,0.84c15.09-0.06,30.17,0.15,45.26-0.11
		c-0.5601-0.72-1.1-1.43-1.62-2.14c-25.21-29.05-53.79-55.85-73.0701-89.53c-8.4399-14.01-14.62-29.21-20.7799-44.31
		c-8.78-22.22-16.5901-44.81-24.75-67.27c-0.9-3.4-4.4-4.69-7.4601-5.41c-17.6599-4.36-35.1899-9.23-52.58-14.54
		c-2.09-0.33-2.61-2.35-2.89-4.12c12.42,2.99,24.5601,7.11,36.9501,10.27c9.3199,2.85,19.12,4.29,28.0099,8.45
		c2.0601,8.63,5.7101,16.76,8.3101,25.23c13.28,37.71,25.76,76.61,49.61,109.26c18.3201,25.34,39.5601,48.37,60.24,71.77
		c0.9401,1.42,2.5801,1.81,4.21,1.89c2.3601,0.2401,4.7401,0.41,7.14,0.47c11.67,0.4,23.38-0.3,35.05,0.38
		c6.85,0.74,13.83,0.81,20.6899-0.07c4.88-0.34,9.78-0.2,14.6801-0.17v2.8c-5.61,1.2-11.37,0.74-17.04,1.18
		c-9.34,0.61-18.6699-0.3-28-0.36c-4.6699-0.02-9.39-1.47-13.97-0.01c-523.66,0.1-1047.3301,0.01-1570.99,0.05
		c-6.75,0.06-13.54-0.34-20.27,0.47c-1.27,0.09-2.53,0.23-3.78,0.38c-0.01-1.2-0.02-2.39-0.03-3.57c1.63-0.28,3.25-0.56,4.86-0.92
		c231.07-0.12,462.15-0.02,693.22-0.05c10.33,0.11,20.68-0.28,31.01,0.28c2.74-0.07,5.48-0.31,8.23-0.41
		c-0.29-0.62-0.87-1.86-1.16-2.48c19.88-10.17,39.44-20.99,59.09-31.61c26.12-14.57,52.26-29.48,75.7-48.18
		c6.55-4.96,12.2-10.94,18.41-16.29c0.0699-0.06,0.2-0.2,0.27-0.27c11.6-12.38,21.8099-26.23,29-41.65
		c9.6799-19.31,14.58-40.56,18.38-61.69c7.5499-47.98,9.3099-96.58,12.4199-144.96c-0.12-5.73,0.76-11.42,0.65-17.16
		c2.54-0.75,5.2-1.01,7.85-1.24c14.25-1.53,28.48-3.15,42.75-4.54c-0.2,1.28-0.41,2.57-0.52,3.86
		c-12.36,0.53-24.61,2.43-36.9299,3.5c-3.7101,0.31-7.4,0.77-11.02,1.57c-0.16,23.7-2.08,47.32-3.0699,71
		c-1.9301,29.42-3.92,58.92-8.9701,88c-5.65,33.76-16.0299,68.06-38.3099,94.77c-11.25,14.06-25.15,25.73-39.5901,36.39
		c-37.3099,26.56-78.45,46.96-118.5399,68.86c-1.08,0.65-2.13,1.32-3.16,2.02c48.16,0.47,96.34,0.06,144.51,0.2c83,0,166,0,249,0
		c18.4-0.17,36.8101,0.35,55.1899-0.28c0.41,0,1.2101,0,1.6201,0c23.71,0.64,47.46,0.1,71.1899,0.28
		c43.51-0.02,87.03,0.1,130.55-0.08c-0.13-0.46-0.39-1.36-0.52-1.81c-7.35-21.55-15.88-42.69-23.0901-64.29
		c-6.74-18.29-12.0199-37.09-16.8799-55.96c-5.1001-21.5-8.7201-43.32-11.89-65.18c-1.42-11.23-3.4701-22.39-4.36-33.69
		c-1.05-12.49-2.5901-24.94-3.6201-37.43c-1.5299-11.33-1.97-22.77-3.73-34.08c-7.62-78.78-12.5699-157.81-18.22-236.76l-0.13-1.15
		c-20.04-0.43-40.1-0.11-60.14-0.13c-5.3099-1.07-10.78-0.67-16.12-1.46c-2.4299-0.47-5.36,1-4.73,3.82
		c-0.05,33.55,0.02,67.1-0.04,100.64c-1.01,8.38-0.24,16.83-0.5,25.24c-1.46,12.25-1.96,24.63-3.7699,36.86
		c-1.7301,10.72-1.3201,21.63-2.4,32.41c-1.04,22.65-2.48,45.31-5.4301,67.8c-3.34,25.43-11.0499,49.98-18.65,74.39
		c-2.58,7.67-4.3099,15.68-7.9399,22.96c-0.6-0.39-1.79-1.18-2.39-1.57c6.72-22.26,14.36-44.26,19.88-66.86
		c5.4-21.23,7.71-43.08,9.22-64.88c0.65-13.36,2-26.68,2.3201-40.05c0.4399-14.75,2.72-29.35,4.1899-44.01
		c0.54-10.31,1.71-20.6,1.39-30.93c-0.3-7.87,1.21-15.67,0.64-23.53c0.27-14.82-0.03-29.65,0.1799-44.48
		c0.9901-9.97,0.37-20,0.54-30C1492.1899,91.15,1492.9,85.23,1491.6899,79.46z"/>
	<path fill="#0A81BD" stroke="#0A81BD" stroke-width="0.3" d="M1580.0699,77.34c1.2301,2.43,1.38,5.21,1.7201,7.87
		c0.87,13.17,1.62,26.36,2.5399,39.53c0.14,2.84,0.27,5.69,0.5901,8.52c2.1499,30.17,4.25,60.34,6.38,90.51
		c0.13,3.16,0.26,6.33,0.6399,9.48c0.4401,6.16,0.9401,12.32,1.4,18.48c0.14,2.85,0.3,5.7,0.66,8.54c0.45,5.23,0.66,10.48,1.1,15.71
		c1.4601,12.28,1.73,24.65,3.17,36.93c0.24,2.36,0.29,4.77-0.3,7.09c-0.22,0.35-0.6699,1.06-0.89,1.42
		c-2.5399-26.12-4.35-52.3-6.33-78.47c-3.73-50.36-7.1801-100.74-10.54-151.14C1580.12,87,1578.7,82.09,1580.0699,77.34z"/>
	<path fill="#007AAE" stroke="#007AAE" stroke-width="0.3" d="M1495.12,83.01c-0.63-2.82,2.3-4.29,4.73-3.82
		c5.34,0.79,10.8101,0.39,16.12,1.46c5.12,2.02,10.67,1.19,16.03,1.25c14.75,0.02,29.49-0.03,44.24,0.03
		c5.65,78.95,10.6,157.98,18.22,236.76c1.76,11.31,2.2001,22.75,3.73,34.08c1.03,12.49,2.5701,24.94,3.6201,37.43
		c0.8899,11.3,2.9399,22.46,4.36,33.69c3.1699,21.86,6.7899,43.68,11.89,65.18c4.86,18.87,10.1399,37.67,16.8799,55.96
		c7.2101,21.6,15.7401,42.74,23.0901,64.29c-6.62,1.25-13.36,0.69-20.03,0.74c-53.67,0.05-107.33-0.01-161,0.02
		c-6.74,0.09-13.55-0.62-20.1899,0.85c-0.41,0-1.2101,0-1.6201,0c-5.33-1.15-10.7799-0.99-16.1899-0.86
		c-141.01,0-282.03-0.01-423.04,0c-2.15-0.14-4.25-0.6-6.31-1.08c40.09-21.9,81.23-42.3,118.5399-68.86
		c14.4401-10.66,28.3401-22.33,39.5901-36.39c22.28-26.71,32.6599-61.01,38.3099-94.77c5.05-29.08,7.04-58.58,8.9701-88
		c0.99-23.68,2.9099-47.3,3.0699-71c3.62-0.8,7.3099-1.26,11.02-1.57c12.3199-1.07,24.5699-2.97,36.9299-3.5
		c-0.25,6.64,0.25,13.29-0.2699,19.91c-0.9501,9.04,0.1,18.15-0.66,27.2c-1,10,0.45,20.11-0.98,30.08
		c-0.4701,6.96,0.12,13.94-0.27,20.9c-0.6,6.37-1.17,12.87,0.08,19.19c1.0701-0.28,2.36-0.12,3.28-0.88
		c0.76-9.7,0.72-19.46,1.01-29.19c1.1899-7.82,0.28-15.75,1.1-23.59c0.59-6.49-0.05-13.01,0.53-19.5
		c0.6699-6.78-0.03-13.61,0.76-20.37c0.6599-6.08-0.01-12.22,0.64-18.3c0.76-6.43,0.12-12.92,0.73-19.36
		c0.5399-5.88,0.0599-11.8,0.5399-17.68c0.6801-6.81,0.0901-13.68,1.03-20.47c0.4-12.28,0.73-24.56,1.28-36.84
		c-0.1801-8.52-0.63-17.22,1.1801-25.61c12.6299-0.78,25.25-2.02,37.9199-2.16c6.65-0.25,13.62-1.56,20.05,0.76
		c2.03,3.63,1.4199,8,1.5599,12c0.26,13.46,1.27,26.89,1.85,40.33c0.67,24.19,2.3501,48.32,3.0901,72.5
		c0.6599,13,1.6899,25.97,2.0699,38.99c1.76,24.11,2.97,48.28,6.36,72.24c1.3501,10.62,3.4701,21.12,5.36,31.66
		c1.54,7.46,2.5901,15.03,4.63,22.38c0.6901-0.1,2.0601-0.3,2.75-0.4c0.12-0.58,0.3601-1.73,0.49-2.3
		c-1.0299,0.16-2.0399,0.33-3.0299,0.5c-1.6-13.47-4.25-26.8-5.9401-40.26c-2.25-14.83-3.65-29.77-5.85-44.58
		c-0.17-14.39-1.95-28.69-2.41-43.07c-0.49-5.76-0.1799-11.55-0.73-17.31c-0.5499-5.74,0.05-11.54-0.6699-17.27
		c-0.8501-6.11-0.26-12.29-0.64-18.43c-0.4-6.02-0.78-12.09,0.12-18.08l0.9399,0.51c1,5.16,0.01,10.45,0.86,15.6
		c2.89,1.16,6.11,0.92,9.1901,1.05c5.6899-0.22,11.35,0.68,16.9299,1.74c7.15,2.19,14.7001,0.75,22.04,1.11
		c6.95-0.41,14.1899,1.2,20.9-1.23c2.37-0.52,4.7899-0.7,7.23-0.82c-1.42,10.39-0.88,20.96-2.96,31.28
		c-1.24,8.73-3.5801,17.26-5.3401,25.88c-1.0399,2.01,1.91,4.07,2.8501,1.69c6.6699-22.57,8.87-46.26,8.7-69.74
		c1.03-12.64,0.51-25.34,0.5699-38c-0.0199-2.38,0.3101-4.74,0.88-7.04c2.36-8.42,0.39-17.27,1.17-25.87
		c4.47,0.09,8.9399-0.11,13.37-0.81c10.87,0.33,21.78-0.42,32.63,0.61c5.5699,0.08,11.14,0.55,16.72,0.48
		c0.0901,5.08-0.39,10.2,0.17,15.27c0.4399,0.47,1.3199,1.41,1.75,1.88c0.5699,7.86-0.9401,15.66-0.64,23.53
		c0.3199,10.33-0.85,20.62-1.39,30.93c-1.47,14.66-3.75,29.26-4.1899,44.01c-0.3201,13.37-1.67,26.69-2.3201,40.05
		c-1.51,21.8-3.8199,43.65-9.22,64.88c-5.52,22.6-13.16,44.6-19.88,66.86c0.6,0.39,1.79,1.18,2.39,1.57
		c3.63-7.28,5.36-15.29,7.9399-22.96c7.6001-24.41,15.3101-48.96,18.65-74.39c2.9501-22.49,4.39-45.15,5.4301-67.8
		c1.08-10.78,0.6699-21.69,2.4-32.41c1.8099-12.23,2.3099-24.61,3.7699-36.86c0.77-2.2,1.5-4.47,1.42-6.84
		c-0.0699-6.14,0.37-12.35-0.92-18.4C1495.14,150.11,1495.0699,116.56,1495.12,83.01 M1282.35,426.37
		c-3.02,25.99-4.3099,52.87-14.89,77.2c-8.22,18.41-18.7899,35.63-28.9099,53.03c-1.3601,1.38-0.5801,3.13,1.4299,2.63
		c-0.54,1.27-0.83,2.63-1.14,3.98c0.74-0.06,2.2101-0.17,2.9501-0.22c3.12-4.1,5.27-8.84,8.01-13.19
		c9.73-16.99,20.0699-33.9,26.2899-52.58c7.42-24.35,8.17-49.98,11.01-75.1c-0.9299-0.54-1.85-1.08-2.75-1.62
		C1282.92,422.13,1282.72,424.32,1282.35,426.37 M1376.5,457.8c12.64,32.42,25.63,64.86,42.3,95.45
		c0.7899,1.52,2.33-0.46,3.2999-0.86c-4.2999-3.44-5.34-9.06-7.95-13.64c-4.49-9.19-8.8101-18.47-13.1801-27.72
		c-8.4-17.61-14.89-36.04-21.87-54.23C1378.84,455.03,1375.71,456.36,1376.5,457.8z"/>
	<path fill="#FEFB40" stroke="#FEFB40" stroke-width="0.3" d="M1490.3,90.01c0.12-3.52-0.79-7.46,1.3899-10.55
		c1.2101,5.77,0.5,11.69,0.67,17.54c-0.17,10,0.4501,20.03-0.54,30c-0.21,14.83,0.0901,29.66-0.1799,44.48
		c-0.4301-0.47-1.3101-1.41-1.75-1.88c-0.5601-5.07-0.08-10.19-0.17-15.27c0.01-0.82,0.02-2.47,0.03-3.29
		c0.02-8.01-0.28-16.03,0.0601-24.03C1490.75,114.7,1490.25,102.34,1490.3,90.01z"/>
	<path fill="#008FCC" stroke="#008FCC" stroke-width="0.3" d="M1515.97,80.65c20.04,0.02,40.1-0.3,60.14,0.13l0.13,1.15
		c-14.75-0.06-29.49-0.01-44.24-0.03C1526.64,81.84,1521.09,82.67,1515.97,80.65z"/>
	<path fill="#020100" stroke="#020100" stroke-width="0.3" d="M703.48,87.6c62.85-4.96,127.49,10.89,180.04,45.98
		c44.28,29.39,79.9,72.33,98.42,122.33c5.79,15.46,9.77,31.55,12.32,47.84c1.33,8.03,1.35,16.19,2.52,24.24
		c0.17,6.66,0.11,13.34,0.04,20.01c-1.35,10.37-1.46,20.9-3.63,31.16c-7.44,42.92-27.22,83.43-55.71,116.3
		c-3.77,4.56-8.11,8.59-11.85,13.18c-6.46,5.53-12.35,11.67-18.94,17.06c-42.67,35.66-96.46,57.44-151.76,62.65
		c-9.33,0.44-18.57,1.98-27.93,1.52c-10.03,0.49-19.95-1.07-29.94-1.57c-54.01-5.3-106.52-26.42-148.63-60.74
		c-10.09-7.83-18.69-17.3-27.79-26.2c-32.98-35.84-55.55-81.53-62.14-129.92c-1.6-8.05-1.28-16.32-2.41-24.43
		c-0.66-17.67,1.02-35.36,4.13-52.76c9.32-48.83,34.3-94.49,70.18-128.86c19.66-19.76,42.78-36.04,67.73-48.42
		C630.82,100.27,666.95,90.66,703.48,87.6 M712.45,90.5c-2.14,0.46-4.33,0.48-6.5,0.53c-62.18,4.14-123.07,29.58-168.64,72.28
		c-6.33,6.68-13.39,12.68-19.13,19.89c-25.51,29.55-44.09,65.23-52.74,103.34c-2.77,11.3-4.14,22.87-5.31,34.42
		c-2.76,35.46,3.23,71.44,16.36,104.45c11.08,26.98,26.84,52.03,46.58,73.51c9.57,9.46,18.76,19.38,29.55,27.49
		c52.6,42.2401,121.2,63.21,188.39,59.53c54.45-2.59,108.3-21.23,152.02-53.96c39.12-28.99,70.25-69.16,86.61-115.18
		c12.98-36.21,17-75.69,10.95-113.71C982.6,249.74,955.09,199.92,915.6,163.4c-43.31-40.72-100.64-65.69-159.65-71.62
		c-6.3-0.65-12.63-0.75-18.89-1.64C728.86,90.32,720.61,89.67,712.45,90.5z"/>
	<path fill="#FFF53E" stroke="#FFF53E" stroke-width="0.3" d="M712.45,90.5c8.16-0.83,16.41-0.18,24.61-0.36
		c6.26,0.89,12.59,0.99,18.89,1.64c59.01,5.93,116.34,30.9,159.65,71.62c39.4901,36.52,67,86.34,74.9901,139.69
		c6.05,38.02,2.03,77.5-10.95,113.71c-16.36,46.02-47.49,86.19-86.61,115.18c-43.72,32.73-97.57,51.37-152.02,53.96
		c-67.19,3.68-135.79-17.29-188.39-59.53c-10.79-8.11-19.98-18.03-29.55-27.49c-19.74-21.48-35.5-46.53-46.58-73.51
		c-13.13-33.01-19.12-68.99-16.36-104.45c1.17-11.55,2.54-23.12,5.31-34.42c8.65-38.11,27.23-73.79,52.74-103.34
		c5.74-7.21,12.8-13.21,19.13-19.89c45.57-42.7,106.46-68.14,168.64-72.28C708.12,90.98,710.31,90.96,712.45,90.5z"/>
	<path stroke="#000000" stroke-width="0.3" d="M1305.99,125.11c10.77,0.17,21.88-2.92,32.41,0.45c-0.48,7.51,0.87,14.97,0.6,22.48
		c0.84,12.91,1.1899,25.85,1.54,38.79c0.95,10.17-0.3101,20.68,2.5599,30.59l-0.0599,0.47c-0.9,5.99-0.52,12.06-0.12,18.08
		c0.38,6.14-0.2101,12.32,0.64,18.43c0.72,5.73,0.12,11.53,0.6699,17.27c0.55,5.76,0.24,11.55,0.73,17.31
		c0.4601,14.38,2.24,28.68,2.41,43.07c2.2,14.81,3.6,29.75,5.85,44.58c1.6901,13.46,4.3401,26.79,5.9401,40.26
		c0.99-0.17,2-0.34,3.0299-0.5c-0.1299,0.57-0.37,1.72-0.49,2.3c-0.6899,0.1-2.0599,0.3-2.75,0.4
		c-2.0399-7.35-3.09-14.92-4.63-22.38c-1.8899-10.54-4.0099-21.04-5.36-31.66c-3.39-23.96-4.6-48.13-6.36-72.24
		c-0.38-13.02-1.41-25.99-2.0699-38.99c-0.74-24.18-2.42-48.31-3.0901-72.5c-0.58-13.44-1.59-26.87-1.85-40.33
		c-0.14-4,0.4701-8.37-1.5599-12c-6.4301-2.32-13.4-1.01-20.05-0.76c-12.6699,0.14-25.29,1.38-37.9199,2.16
		c-1.8101,8.39-1.3601,17.09-1.1801,25.61c-0.55,12.28-0.88,24.56-1.28,36.84c-0.9399,6.79-0.35,13.66-1.03,20.47
		c-0.48,5.88,0,11.8-0.5399,17.68c-0.61,6.44,0.03,12.93-0.73,19.36c-0.65,6.08,0.0199,12.22-0.64,18.3
		c-0.79,6.76-0.0901,13.59-0.76,20.37c-0.5801,6.49,0.0599,13.01-0.53,19.5c-0.8199,7.84,0.09,15.77-1.1,23.59
		c-0.29,9.73-0.25,19.49-1.01,29.19c-0.92,0.76-2.21,0.6-3.28,0.88c2.47-4.6,0.9301-9.92,1.54-14.88
		c1.0599-8.37,0.08-16.81,0.65-25.2c1.59-9.98-0.03-20.12,1.0599-30.14c0.6901-8.47-0.1699-16.99,0.47-25.46
		c0.7101-6.16,0.3101-12.36,0.4-18.54c0.02-4,1.1-7.92,0.92-11.94c-0.14-6.34-0.09-12.68,0.5499-19
		c-0.23-9.99,0.79-19.92,0.75-29.91c0.87-5.31,0.5801-10.69,0.8-16.04c0.97-7.32,0.27-14.73,1.15-22.07
		c-0.4-6.97,1.1-13.87,0.5699-20.83C1283.5699,125.11,1294.97,126.26,1305.99,125.11z"/>
	<path fill="#33778C" stroke="#33778C" stroke-width="0.3" d="M1584.33,124.74c0.37,2.83,0.4501,5.68,0.5901,8.52
		C1584.6,130.43,1584.47,127.58,1584.33,124.74z"/>
	<path fill="#067AB4" stroke="#067AB4" stroke-width="0.3" d="M1338.4,125.56c0.4299,0.21,1.28,0.61,1.71,0.81
		c0.58,8.2,1,16.4,1.01,24.61c1.0601,6.98,0.45,14.05,1.15,21.05c0.4,5.76-0.11,11.55,0.52,17.3c0.59,6-0.23,12.08,0.8199,18.05
		c0.5601,3.34,0.52,6.79-0.51,10.04c-2.87-9.91-1.61-20.42-2.5599-30.59c-0.3501-12.94-0.7001-25.88-1.54-38.79
		C1339.27,140.53,1337.92,133.07,1338.4,125.56z"/>
	<path fill="#FEFB40" stroke="#FEFB40" stroke-width="0.3" d="M1271.13,128.44c0.4301-0.07,1.28-0.2,1.71-0.27
		c0.53,6.96-0.97,13.86-0.5699,20.83c-0.88,7.34-0.1801,14.75-1.15,22.07c-0.22,5.35,0.0699,10.73-0.8,16.04
		c0.04,9.99-0.98,19.92-0.75,29.91c-0.6399,6.32-0.6899,12.66-0.5499,19c0.1799,4.02-0.9,7.94-0.92,11.94
		c-0.09,6.18,0.3101,12.38-0.4,18.54c-0.6399,8.47,0.2201,16.99-0.47,25.46c-0.52,0.02-1.5599,0.04-2.08,0.05
		c0.76-9.05-0.29-18.16,0.66-27.2c0.5199-6.62,0.0199-13.27,0.2699-19.91c0.11-1.29,0.3201-2.58,0.52-3.86
		c0.52-3.99,0.4-8.03,0.4-12.05C1268.16,195.47,1269.45,161.94,1271.13,128.44z"/>
	<path fill="#030101" stroke="#030101" stroke-width="0.3" d="M1424.62,149.3c9.5-1.25,18.89,1.12,28.38,0.7
		c12.26-0.26,24.5,0.61,36.75,1.04c-0.01,0.82-0.02,2.47-0.03,3.29c-5.58,0.07-11.15-0.4-16.72-0.48
		c-10.85-1.03-21.76-0.28-32.63-0.61c-4.8-0.6-9.64-0.6-14.46-0.44c-0.17,9.04,0.1,18.08-0.0801,27.12
		c-0.5699,2.3-0.8999,4.66-0.88,7.04c-0.0599,12.66,0.4601,25.36-0.5699,38c0.17,23.48-2.03,47.17-8.7,69.74
		c-0.9401,2.38-3.89,0.32-2.8501-1.69c1.76-8.62,4.1001-17.15,5.3401-25.88c2.08-10.32,1.5399-20.89,2.96-31.28
		c-2.4401,0.12-4.86,0.3-7.23,0.82c-14.3101,0.16-28.63-0.08-42.9401,0.12c-5.58-1.06-11.24-1.96-16.9299-1.74
		c-3.0801-0.13-6.3,0.11-9.1901-1.05c-0.85-5.15,0.14-10.44-0.86-15.6c1.17,4.03,0.39,8.31,0.66,12.44
		c10.0499,1.38,20.21,1.54,30.3199,2.18c15.3301-0.22,30.7101,0.67,45.99-0.82c-0.0599-1.26-0.09-2.52-0.09-3.78
		c0.0601-6.48,0.84-12.93,0.76-19.42c0.12-7-0.35-14.02,0.39-20.99c0.61-7.22-0.22-14.49,0.45-21.7c0.74-4.89,0.6901-9.87,0.3-14.79
		C1423.39,150.8,1424.01,150.05,1424.62,149.3z"/>
	<path fill="#FDFF43" stroke="#FDFF43" stroke-width="0.3" d="M1421.48,152.75c0.3201-0.3,0.96-0.92,1.28-1.23
		c0.39,4.92,0.4399,9.9-0.3,14.79c-0.6699,7.21,0.16,14.48-0.45,21.7c-0.74,6.97-0.27,13.99-0.39,20.99
		c0.08,6.49-0.7,12.94-0.76,19.42c-3.04-3.03-1.76-7.61-1.76-11.42c0.8301-7.64,0.42-15.33,0.61-22.99
		C1420.8199,180.28,1419.73,166.44,1421.48,152.75z"/>
	<path fill="#0090CD" stroke="#0090CD" stroke-width="0.3" d="M1425.91,152.8c4.8199-0.16,9.6599-0.16,14.46,0.44
		c-4.4301,0.7-8.9,0.9-13.37,0.81c-0.78,8.6,1.1899,17.45-1.17,25.87C1426.01,170.88,1425.74,161.84,1425.91,152.8z"/>
	<path fill="#020100" stroke="#020100" stroke-width="0.3" d="M218.57,169.65c8.65-1.41,17.31,0.53,25.79,2.12
		c1.91,0.46,4.09,0.76,5.48,2.31c3.41,3.58,6.31,8.12,6.25,13.24c-1.2,6.15-0.48,12.45-0.65,18.68c0.17,11.65-0.48,23.33,0.57,34.95
		c0.11,15.36,0,30.73,0.03,46.09c0,3.67,1.01,7.25,0.9,10.92c-0.04,22.69-0.04,45.39,0,68.08c0.1,4-1.04,7.92-0.91,11.93
		c0.04,19.67,0,39.35,0.02,59.03c0,4.52,0.17,9.07-0.41,13.57c-0.42-2.52-0.81-5.05-0.85-7.6c0.04-57,0.07-114.01,0-171.02
		c-1.41-16.28-0.53-32.63-0.77-48.95c-0.22-12.3,0.76-24.71-1.3-36.91c-0.81-3.78-2.74-7.74-6.1-9.82
		c-13.94-4.71-29.25-4.38-43.22-0.02c-2.39,0.77-4.37,2.69-5.01,5.15c-4.27,15.87-1.36,32.42-3.33,48.55
		c-0.22,31.68,0.03,63.37-0.12,95.05c-0.1,5.69,1.01,11.31,0.94,16.99c-0.17,10.01,0.66,20,0.58,30.01
		c0.62,6.64,0.57,13.31-0.12,19.95c-0.97,9.41,0.12,18.9-1.04,28.3c-0.73,6.24-0.02,12.52-0.39,18.77
		c-0.22,4.75-2.83,9.61-7.37,11.5c-7.17,3.5-15.45,2.55-22.97,0.83c-2.18-0.5-4.17-1.62-5.78-3.15c1.46-0.07,2.92-0.12,4.38-0.14
		c6.43,0.14,13.01,3.03,19.32,0.52c4.36-0.89,8.43-4.22,8.97-8.82c0.52-6.57-0.22-13.17,0.35-19.74c0.97-8.99-0.26-18.07,1.03-27.04
		c0.1-7.33,1.03-14.63,0.19-21.94c0.46-9.38-1.19-18.67-0.81-28.04c0.19-5.68-0.74-11.32-0.63-17c0.11-32.66-0.13-65.32,0.12-97.98
		c1.44-12.16-0.76-24.52,1.58-36.58c0.68-4.27,0.63-8.76,2.35-12.79c1.68-2.92,4.32-5.6,7.75-6.23
		C208.4,171.23,213.51,170.54,218.57,169.65z"/>
	<path fill="#177B35" stroke="#177B35" stroke-width="0.3" d="M203.4,176.25c13.97-4.36,29.28-4.69,43.22,0.02
		c3.36,2.08,5.29,6.04,6.1,9.82c2.06,12.2,1.08,24.61,1.3,36.91c0.24,16.32-0.64,32.67,0.77,48.95c0.07,57.01,0.04,114.02,0,171.02
		c0.04,2.55,0.43,5.08,0.85,7.6c-0.3,8.3,0.26,16.62-0.33,24.92c-0.87,2.4-1.49,4.91-1.37,7.49c0.14,11.03-0.01,22.06,0.06,33.09
		c-0.35,4.13,3.6,6.51,6.25,8.95c0.46,0.37,1.38,1.11,1.84,1.48c6.37,2.34,13.28,1.26,19.91,1.51c5.11-0.16,10.64,0.67,15.36-1.74
		c6.5-4.6,10.83-12.01,11.96-19.87c1.21-8.41,1.81-16.89,2.48-25.35c0.79-9.01-0.23-18.03-0.74-27.02
		c-0.28-5.67,0.14-11.35-0.22-17.02c-1.2-12.98-0.36-26.02-0.65-39.03c0.09-7.27,0.19-15.64,5.5-21.25
		c6.78-6.43,16.7-5.8,25.34-5.61c7.01,0.03,12.85,4.51,18.04,8.72c0.23-1.02,0.46-2.03,0.69-3.04c-0.31,2.89,1.23,5.42,2.66,7.79
		c0.92,10.47,0.16,21,1.23,31.46c0.42,7.31-0.08,14.63,0.2,21.94c0.66,11.99,0.51,24,0.36,36c-0.69,9.3-0.04,18.66-0.99,27.95
		c-0.43,5.13-0.4,10.28-0.08,15.42l-0.13,0.72c-1.76,2.02-1.68,4.79-0.48,7.09c-0.85,7.26-0.06,14.81-2.5,21.82
		c-1.53,4.6-2.07,9.53-4.13,13.95c-5.13,5.07-11.43,9.05-18.12,11.68c-16.86,1.97-33.87,1.28-50.81,1.29
		c-7.14-0.8-14.53-0.08-21.07,3.03c-5.12,2.55-7.47,8.59-7.78,14.01c-0.12,9.35-0.1,18.71,0.85,28.02
		c0.22,44.42-0.28,88.85,0.25,133.27c-3.43,9.77-6.02,19.8-8.74,29.78c-1.58-0.3-3.15-0.61-4.72-0.9c2.15-16.33,5-32.62,5.38-49.12
		c0-1.51-0.15-3.25-2.09-3.1c-1.62,2.43-1.28,5.5699-1.74,8.36c-0.76,13.84-2.54,27.62-4.82,41.29c-1.44-4.35-2.66-9.05-1.62-13.62
		c0.62-3.77,2.54-7.52,1.3-11.36c-1.27,1.09-2.51,2.23-3.73,3.39c-3.27-21.91-6.74-43.78-10.89-65.54
		c-3.33-15.71-7.08-31.33-11.5-46.77c-0.78,0.11-2.34,0.33-3.13,0.44c4.66,19.22,9.92,38.3199,13.25,57.83
		c3.77,20.5,6.76,41.13,10.09,61.7c0.8,5.39,0.48,10.85,0.59,16.28c-1.36-0.16-2.7-0.29-4.05-0.4301
		c-0.67-2.3199-1.13-5.04-3.66-6.0099c-0.32,2.29-0.55,4.6-0.84,6.91c-2.25-9.22-2.06-18.84-3.58-28.19
		c-0.76-0.07-2.3-0.22-3.06-0.29c-0.21,9.35,2.42,18.49,2.37,27.85c-1.94-0.02-3.86-0.01-5.79,0.01c-0.99-9.89-1.68-19.8-2.28-29.71
		c-0.01-8.18,0.96-16.33,1.74-24.47c0.15-1.58-0.17-3.14-0.43-4.67c-0.66,0.2-1.99,0.61-2.66,0.81c-0.79,9.09-2.14,18.16-2.26,27.3
		c0.24,6.49,0.84,12.96,1.6,19.41c-1.26,0.29-2.51,0.6-3.77,0.92c0.27,3.61,0.66,7.21,0.92,10.8199c-1.37,0.02-2.73,0.04-4.1,0.07
		c0-15.84-2.71-31.55-6.35-46.92c-1.52-7.52-3.94-14.89-4.66-22.55c-0.88-9.25-1.11-18.52-1.08-27.8c-1.09-10.63-0.09-21.32-1-31.96
		c-0.54-8.01,0.01-16.03-0.26-24.04c-1.25-14.96-0.45-29.98-0.67-44.96c0-22.02,0-44.04,0.02-66.05c0.11-5.85-2.98-12.04-8.5-14.44
		c-4.44-1.28-9.14-0.79-13.7-1.25c-13.41-0.19-26.84-1.02-40.14-2.84c-8.04-0.82-14.61-6.44-19.35-12.61
		c-5.29-9.32-8.04-20.06-8.33-30.76c-0.19-7.36-1.32-14.68-1.03-22.05c0.27-9.43-0.5-18.9,0.58-28.3c0.64-6.55,0.25-13.14,0.32-19.7
		c0.06-28.01-0.1-56.01,0.07-84.01c0.81-10.01,0.01-20.06,0.9-30.06c0.38-6.4-0.07-12.83,0.68-19.21
		c0.57-5.25-0.11-11.26,3.67-15.51c3.15-4.38,9.09-3.63,13.79-4.42c7.54-1.18,15.47-1.19,22.68,1.62c4.88,2.21,8.26,7.27,8.06,12.69
		c-0.15,15.67,1.33,31.29,1.43,46.95c0.27,5.31,0.79,10.62,0.76,15.95c-0.03,18-0.03,36,0,54c0.01,4.33-0.53,8.63-0.77,12.96
		c-0.14,17.68-1.46,35.31-1.94,52.99c-0.02,4.03-0.96,8.41,1.11,12.12c1.87,2.34,3.59,4.8,5.5,7.13c1.61,1.53,3.6,2.65,5.78,3.15
		c7.52,1.72,15.8,2.67,22.97-0.83c4.54-1.89,7.15-6.75,7.37-11.5c0.37-6.25-0.34-12.53,0.39-18.77c1.16-9.4,0.07-18.89,1.04-28.3
		c0.69-6.64,0.74-13.31,0.12-19.95c0.08-10.01-0.75-20-0.58-30.01c0.07-5.68-1.04-11.3-0.94-16.99c0.15-31.68-0.1-63.37,0.12-95.05
		c1.97-16.13-0.94-32.68,3.33-48.55C199.03,178.94,201.01,177.02,203.4,176.25z"/>
	<path fill="#008FCB" stroke="#008FCB" stroke-width="0.3" d="M1495.08,183.65c1.29,6.05,0.8501,12.26,0.92,18.4
		c0.08,2.37-0.65,4.64-1.42,6.84C1494.84,200.48,1494.0699,192.03,1495.08,183.65z"/>
	<path fill="#FEF63F" stroke="#FEF63F" stroke-width="0.3" d="M256.09,187.32c4.89,2.74,5.12,8.72,4.96,13.67
		c0.1,13.01-0.55,26.06,0.53,39.05c0.52,19.31-0.56,38.67,0.74,57.96c0.07,14.33-0.01,28.66,0.02,43c-0.09,12,0.35,24.02-0.59,36
		c-0.16,22.35,0.01,44.7-0.06,67.04c-1.33,18.62-0.42,37.31-0.71,55.97c0.13,4.89-0.8,10.1,1.36,14.7
		c1.36,3.08,2.51,6.2599,3.34,9.54c-1.18,0.78-2.38,1.53-3.59,2.25c-0.46-0.37-1.38-1.11-1.84-1.48c-0.67-4.16-3.01-7.68-4.78-11.4
		c-0.18-12.71,0.19-25.43-0.16-38.13c0.59-8.3,0.03-16.62,0.33-24.92c0.58-4.5,0.41-9.05,0.41-13.57
		c-0.02-19.68,0.02-39.36-0.02-59.03c-0.13-4.01,1.01-7.93,0.91-11.93c-0.04-22.69-0.04-45.39,0-68.08c0.11-3.67-0.9-7.25-0.9-10.92
		c-0.03-15.36,0.08-30.73-0.03-46.09c-1.05-11.62-0.4-23.3-0.57-34.95C255.61,199.77,254.89,193.47,256.09,187.32z"/>
	<path fill="#487882" stroke="#487882" stroke-width="0.3" d="M1591.3,223.77c0.3899,3.14,0.47,6.31,0.6399,9.48
		C1591.5601,230.1,1591.4301,226.93,1591.3,223.77z"/>
	<path fill="#020101" stroke="#020101" stroke-width="0.3" d="M113.54,229.47c10.58-1.72,21.86-3.36,32.11,0.78
		c4.54,1.85,7.68,5.79,10.25,9.8c-2.31,9.13-2.47,18.76-1.12,28.06c0.36,4.26-0.08,8.55,0.27,12.82c0.94,8.66,0.01,17.4,1,26.06
		c0.1,19.34,0.08,38.68,0,58.02c-0.9,8.58-0.33,17.21-0.66,25.81c-0.72,6.09-0.08,12.26-1.15,18.32
		c-0.44,10.64-1.01,21.27-0.95,31.93c-2.07-3.71-1.13-8.09-1.11-12.12c0.48-17.68,1.8-35.31,1.94-52.99
		c0.24-4.33,0.78-8.63,0.77-12.96c-0.03-18-0.03-36,0-54c0.03-5.33-0.49-10.64-0.76-15.95c-0.1-15.66-1.58-31.28-1.43-46.95
		c0.2-5.42-3.18-10.48-8.06-12.69c-7.21-2.81-15.14-2.8-22.68-1.62c-4.7,0.79-10.64,0.04-13.79,4.42
		c-3.78,4.25-3.1,10.26-3.67,15.51c-0.75,6.38-0.3,12.81-0.68,19.21c-0.89,10-0.09,20.05-0.9,30.06c-0.17,28-0.01,56-0.07,84.01
		c-0.07,6.56,0.32,13.15-0.32,19.7c-1.08,9.4-0.31,18.87-0.58,28.3c-0.29,7.37,0.84,14.69,1.03,22.05
		c0.29,10.7,3.04,21.44,8.33,30.76c4.74,6.17,11.31,11.79,19.35,12.61c13.3,1.82,26.73,2.65,40.14,2.84
		c4.56,0.46,9.26-0.03,13.7,1.25c5.52,2.4,8.61,8.59,8.5,14.44c-0.02,22.01-0.02,44.03-0.02,66.05c0.22,14.98-0.58,30,0.67,44.96
		c0.27,8.0099-0.28,16.03,0.26,24.04c0.91,10.64-0.09,21.33,1,31.96c-0.03,9.28,0.2,18.55,1.08,27.8c-1.23-0.09-2.47-0.14-3.7-0.16
		c-1.08-11.5099-0.19-23.09-1.18-34.6c-0.45-7.8,0.41-15.64-0.66-23.39c-1.25-10.21,0.7-20.58-1.06-30.73
		c-0.13-2.64-0.09-5.28-0.1-7.92c-53.43-0.1-106.86-0.01-160.29-0.04c-9.38,0.06-18.77-0.19-28.14,0.25L0,615.03v-3.78
		c63.1-0.07,126.21,0.12,189.31-0.09l0.09-1.09c0.02-0.53,0.06-1.6,0.08-2.13c0.01-30.66-0.02-61.33,0.02-91.99
		c0.26-4.6-3.34-8.2-6.82-10.64c-7.54-0.5-15.12-0.99-22.69-0.89c-9.72-0.1-19.33-1.68-29.01-2.41
		c-9.22-0.31-16.61-7.06-22.26-13.73c-5.18-8.48-7.81-18.38-8.82-28.21c-1.82-15.63-1.21-31.38-1.33-47.08
		c-0.07-4.68,0.64-9.32,0.64-13.99c-0.04-29.67,0-59.33-0.02-89c0.01-3.95-0.15-7.9,0.2-11.84c1.34-9.36-0.08-18.84,1.2-28.21
		c0.05-9.23,0.31-18.45,0.89-27.67C102.99,236.51,106.99,229.98,113.54,229.47z"/>
	<path fill="#0091CF" stroke="#0091CF" stroke-width="0.3" d="M1370.96,236.79c14.3101-0.2,28.63,0.04,42.9401-0.12
		c-6.7101,2.43-13.9501,0.82-20.9,1.23C1385.66,237.54,1378.11,238.98,1370.96,236.79z"/>
	<path fill="#FEF63F" stroke="#FEF63F" stroke-width="0.3" d="M154.78,268.11c-1.35-9.3-1.19-18.93,1.12-28.06
		c2.83,3.36,2.95,7.94,3.54,12.09c0.91,19.94,1.29,39.9,2.33,59.83c-0.06,19.36,0,38.71-0.02,58.07
		c-1.13,21.28-1.97,42.59-3.02,63.88c-0.69,4.5,2.46,8.09,5.18,11.25c-0.25,0.96-0.49,1.92-0.74,2.89
		c-1.46,0.02-2.92,0.07-4.38,0.14c-1.91-2.33-3.63-4.79-5.5-7.13c-0.06-10.66,0.51-21.29,0.95-31.93
		c1.07-6.06,0.43-12.23,1.15-18.32c0.33-8.6-0.24-17.23,0.66-25.81c0.08-19.34,0.1-38.68,0-58.02c-0.99-8.66-0.06-17.4-1-26.06
		C154.7,276.66,155.14,272.37,154.78,268.11z"/>
	<path fill="#FEFB40" stroke="#FEFB40" stroke-width="0.3" d="M1214.4301,247.43c0.3899-0.15,1.1699-0.45,1.5699-0.61
		c0.11,5.74-0.77,11.43-0.65,17.16c-3.11,48.38-4.87,96.98-12.4199,144.96c-3.8,21.13-8.7001,42.38-18.38,61.69
		c-7.1901,15.42-17.4,29.27-29,41.65c-0.0701,0.0699-0.2001,0.21-0.27,0.27c-6.2101,5.35-11.86,11.33-18.41,16.29
		c-23.4399,18.7-49.58,33.61-75.7,48.18c-19.65,10.62-39.21,21.44-59.09,31.61c-1.76,0.22-3.53,0.35-5.27,0.48
		c33.3701-18.68,67.47-36.13,99.98-56.32c14.58-9.13,29.0699-18.54,42.2799-29.6c12.4401-9.91,23.5801-21.46,32.62-34.57
		c11.4701-16.21,19.02-34.94,23.76-54.15c5.65-22.13,8.49-44.85,10.76-67.54c2.8-28.5,4.4501-57.11,6.1001-85.7
		C1213.21,269.97,1212.98,258.63,1214.4301,247.43z"/>
	<path fill="#2B7792" stroke="#2B7792" stroke-width="0.3" d="M1593.34,251.73c0.38,2.83,0.48,5.69,0.66,8.54
		C1593.64,257.43,1593.48,254.58,1593.34,251.73z"/>
	<path fill="#FFFE38" stroke="#FFFE38" stroke-width="0.3" d="M1265.15,292.01c0.52-0.01,1.5599-0.03,2.08-0.05
		c-1.09,10.02,0.53,20.16-1.0599,30.14c-0.5701,8.39,0.4099,16.83-0.65,25.2c-0.61,4.96,0.9299,10.28-1.54,14.88
		c-1.25-6.32-0.6799-12.82-0.08-19.19c0.39-6.96-0.2001-13.94,0.27-20.9C1265.6,312.12,1264.15,302.01,1265.15,292.01z"/>
	<path fill="#007AAE" stroke="#007AAE" stroke-width="0.3" d="M1597.97,320c2.27,0.69,4.61,1.14,7.01,1.28
		c12.3201,0.88,24.64,1.66,36.98,2.1c1.3501,7.73,2.14,15.53,3.36,23.28c6.1901,41.05,11.4901,83.08,28.7301,121.28
		c7.11,16.4,16.3199,31.82,26.38,46.56c21.35,32.47,45.5299,62.94,68.1,94.54c-5.72,1.59-11.6801,0.9901-17.53,1.01c-24,0-48,0-72,0
		c-5.4301-0.12-10.87-0.09-16.26,0.55c-0.9-0.05-1.77-0.1-2.63-0.13c-4.1799-12.33-8.58-24.58-12.67-36.95
		c-5.7-18.53-12.23-36.8-17.5299-55.45c-0.23-0.56-0.6901-1.67-0.92-2.22c-0.37-1.59-0.72-3.17-1.05-4.75
		c-0.22-0.55-0.6599-1.65-0.8799-2.21c-0.53-2.08-1.03-4.17-1.5701-6.23c-0.03-0.11-0.09-0.33-0.12-0.44l-0.16-0.55
		c-0.23-0.62-0.7-1.87-0.9399-2.5c-0.4401-2.06-0.86-4.11-1.26-6.16c-0.23-0.55-0.6901-1.65-0.92-2.2
		c-2.73-12.57-5.75-25.06-8.26-37.67c-8.35-43.51-13.1599-87.61-16.75-131.72C1597.3,321.06,1597.75,320.35,1597.97,320z"/>
	<path fill="#006997" stroke="#006997" stroke-width="0.3" d="M1645.0601,320.31c1.98,6.78,2.2,13.93,3.49,20.86
		c2.1799,14.2,4.08,28.46,6.5599,42.62c0.28,1.77,0.8,3.79,2.89,4.12c17.39,5.31,34.92,10.18,52.58,14.54
		c3.0601,0.72,6.5601,2.01,7.4601,5.41c8.1599,22.46,15.97,45.05,24.75,67.27c6.1599,15.1,12.34,30.3,20.7799,44.31
		c19.28,33.68,47.8601,60.48,73.0701,89.53c-6.72,1.9901-13.77,0.89-20.64,1.11c-13.74,0.18-27.49-0.35-41.21,0.3
		c-1.17-0.04-2.3401-0.06-3.48-0.06c-14.5-19.46-28.63-39.2-42.7401-58.96c-19.88-28.69-40.49-57.32-54.4199-89.52
		c-17.72-40.52-21.99-85.01-28.84-128.24C1644.67,329.22,1643.3199,324.61,1645.0601,320.31z"/>
	<path fill="#020100" stroke="#020100" stroke-width="0.3" d="M317.36,371.37c4.83-3.43,10.95-3.59,16.65-3.6
		c4.8,0.04,9.7-0.2,14.39,1.02c4.09,1.9,7.8,4.5,11.58,6.94l-0.22,1.07c-0.23,1.01-0.46,2.02-0.69,3.04
		c-5.19-4.21-11.03-8.69-18.04-8.72c-8.64-0.19-18.56-0.82-25.34,5.61c-5.31,5.61-5.41,13.98-5.5,21.25
		c0.29,13.01-0.55,26.05,0.65,39.03c0.36,5.67-0.06,11.35,0.22,17.02c0.51,8.99,1.53,18.01,0.74,27.02
		c-0.67,8.46-1.27,16.94-2.48,25.35c-1.13,7.86-5.46,15.27-11.96,19.87c-4.72,2.41-10.25,1.58-15.36,1.74
		c-6.63-0.25-13.54,0.83-19.91-1.51c1.21-0.72,2.41-1.47,3.59-2.25c9.57,0.56,19.22,0.52,28.79,0.14
		c5.34-3.88,9.62-9.65,10.82-16.24c2.6-11.22,2.25-22.81,3.56-34.18c-0.81-9.63-1.61-19.3-1.36-28.97c0.25-7.68-0.91-15.32-0.62-23
		c0.28-12.28-0.63-24.61,0.74-36.85C308.89,379.55,312.04,374.01,317.36,371.37z"/>
	<path fill="#FEF63F" stroke="#FEF63F" stroke-width="0.3" d="M359.98,375.73c1.26,0.24,2.52,0.46,3.8,0.66
		c2.61,3.85,5.85,7.73,6.13,12.59c0.3,4.33,0.02,8.67,0.04,13.01c-0.12,7.35,1.05,14.66,0.74,22.02c-0.28,8,0.84,15.98,0.67,23.99
		c-0.11,10.66,0.07,21.33-0.06,31.99c-0.86,20.7-2.7,41.35-4.6,61.97c-0.49,4.93-2.44,9.54-3.39,14.37
		c-0.66,2.54-0.89,5.31-2.31,7.57c-1.29,0.54-2.65,0.91-3.97,1.36c-0.4-1.44-0.78-2.88-1.13-4.32c2.06-4.42,2.6-9.35,4.13-13.95
		c2.44-7.01,1.65-14.56,2.5-21.82c0.83-2.29,0.67-4.72,0.48-7.09l0.13-0.72c1.91-11.68,1.19-23.61,2.72-35.33
		c0.19-13.02,0.02-26.05,0.09-39.07c0.14-4.01-0.94-7.91-0.95-11.91c-0.13-6.79,0.37-13.61-0.42-20.38
		c-0.47-7.22,0.07-14.46-0.22-21.67c0.05-1.71-1.14-3.03-1.94-4.41c-1.43-2.37-2.97-4.9-2.66-7.79L359.98,375.73z"/>
	<path fill="#020100" stroke="#020100" stroke-width="0.3" d="M362.42,384.59c0.8,1.38,1.99,2.7,1.94,4.41
		c0.29,7.21-0.25,14.45,0.22,21.67c0.79,6.77,0.29,13.59,0.42,20.38c0.01,4,1.09,7.9,0.95,11.91c-0.07,13.02,0.1,26.05-0.09,39.07
		c-1.53,11.72-0.81,23.65-2.72,35.33c-0.32-5.14-0.35-10.29,0.08-15.42c0.95-9.29,0.3-18.65,0.99-27.95c0.15-12,0.3-24.01-0.36-36
		c-0.28-7.31,0.22-14.63-0.2-21.94C362.58,405.59,363.34,395.06,362.42,384.59z"/>
	<path fill="#10A3DF" stroke="#10A3DF" stroke-width="0.3" d="M1720.0699,402.51c2.16,0.71,2.8501,2.91,3.55,4.84
		c10.01,28.92,19.5,58.08,31.83,86.12c9.03,20.46,21.25,39.38,35.17,56.84c10.5601,13.08,21.53,25.83,32.63,38.47
		c6.38,7.3,13.23,14.22,19.1899,21.8799c-1.6299-0.08-3.2699-0.47-4.21-1.89c-20.6799-23.4-41.9199-46.43-60.24-71.77
		c-23.85-32.65-36.33-71.55-49.61-109.26C1725.78,419.27,1722.13,411.14,1720.0699,402.51z"/>
	<path fill="#FFFE38" stroke="#FFFE38" stroke-width="0.3" d="M1282.35,426.37c0.37-2.05,0.5701-4.24,2-5.87
		c0.79,5.4-0.9199,10.78-1,16.19c-2.38,19.86-4.0399,40.05-10.58,59.09c-3.0801,9.88-7.9301,19.05-12.6,28.23
		c-0.3201,0.51-0.9601,1.52-1.27,2.03c-2.4501,4.72-5,9.4-7.77,13.94c-0.3101,0.51-0.9301,1.54-1.23,2.05
		c-3.1801,5.81-6.7101,11.41-9.92,17.2c-2.01,0.5-2.79-1.25-1.4299-2.63c10.12-17.4,20.6899-34.62,28.9099-53.03
		C1278.04,479.24,1279.33,452.36,1282.35,426.37z"/>
	<path fill="#010101" stroke="#010101" stroke-width="0.3" d="M1284.35,420.5c0.9,0.54,1.8201,1.08,2.75,1.62
		c-2.84,25.12-3.59,50.75-11.01,75.1c-6.22,18.68-16.5599,35.59-26.2899,52.58c-2.74,4.35-4.89,9.09-8.01,13.19
		c-0.74,0.05-2.2101,0.16-2.9501,0.22c0.3101-1.35,0.6-2.71,1.14-3.98c3.21-5.79,6.74-11.39,9.92-17.2
		c0.2999-0.51,0.9199-1.54,1.23-2.05c2.77-4.54,5.3199-9.22,7.77-13.94c0.3099-0.5099,0.95-1.52,1.27-2.03
		c4.6699-9.18,9.5199-18.35,12.6-28.23c6.54-19.04,8.2-39.23,10.58-59.09C1283.4301,431.28,1285.14,425.9,1284.35,420.5z"/>
	<path fill="#000102" stroke="#000102" stroke-width="0.3" d="M1376.5,457.8c-0.79-1.44,2.34-2.77,2.6-1
		c6.98,18.19,13.47,36.62,21.87,54.23c4.37,9.25,8.6901,18.53,13.1801,27.72c2.61,4.58,3.65,10.2,7.95,13.64
		c-0.97,0.4-2.51,2.38-3.2999,0.86C1402.13,522.66,1389.14,490.22,1376.5,457.8z"/>
	<path fill="#070601" stroke="#070601" stroke-width="0.3" d="M253.94,482.98c-0.12-2.58,0.5-5.09,1.37-7.49
		c0.35,12.7-0.02,25.42,0.16,38.13c1.77,3.72,4.11,7.24,4.78,11.4c-2.65-2.44-6.6-4.82-6.25-8.95
		C253.93,505.04,254.08,494.01,253.94,482.98z"/>
	<path fill="#7A5540" stroke="#7A5540" stroke-width="0.3" d="M1622.09,490.81c0.23,0.55,0.6901,1.65,0.92,2.2
		C1622.78,492.46,1622.3199,491.36,1622.09,490.81z"/>
	<path fill="#915330" stroke="#915330" stroke-width="0.3" d="M1624.27,499.17c0.24,0.63,0.71,1.88,0.9399,2.5
		C1624.98,501.05,1624.51,499.8,1624.27,499.17z"/>
	<path fill="#A77B5F" stroke="#A77B5F" stroke-width="0.3" d="M1625.37,502.22c0.03,0.11,0.09,0.33,0.12,0.44
		C1625.46,502.55,1625.4,502.33,1625.37,502.22z"/>
	<path fill="#78695C" stroke="#78695C" stroke-width="0.3" d="M1627.0601,508.89c0.22,0.56,0.6599,1.66,0.8799,2.21
		C1627.72,510.55,1627.28,509.45,1627.0601,508.89z"/>
	<path fill="#AF4217" stroke="#AF4217" stroke-width="0.3" d="M1155.28,512.55c0.0699-0.06,0.2-0.2,0.27-0.27
		C1155.48,512.35,1155.35,512.49,1155.28,512.55z"/>
	<path fill="#765A49" stroke="#765A49" stroke-width="0.3" d="M1628.99,515.85c0.23,0.55,0.6901,1.66,0.92,2.22
		C1629.6801,517.51,1629.22,516.4,1628.99,515.85z"/>
	<path fill="#000D0A" stroke="#000D0A" stroke-width="0.3" d="M362.53,525.17c-1.2-2.3-1.28-5.07,0.48-7.09
		C363.2,520.45,363.36,522.88,362.53,525.17z"/>
	<path fill="#AE6C49" stroke="#AE6C49" stroke-width="0.3" d="M1258.9,526.04c0.3099-0.5099,0.95-1.52,1.27-2.03
		C1259.85,524.52,1259.21,525.53,1258.9,526.04z"/>
	<path fill="#A86547" stroke="#A86547" stroke-width="0.3" d="M1249.9,542.03c0.2999-0.51,0.9199-1.54,1.23-2.05
		C1250.8199,540.49,1250.2,541.52,1249.9,542.03z"/>
	<path fill="#010100" stroke="#010100" stroke-width="0.3" d="M337.78,572.62c6.69-2.63,12.99-6.61,18.12-11.68
		c0.35,1.44,0.73,2.88,1.13,4.32c-6.21,4.17-12.3,9.1-19.65,11.03c-16.41,1.56-32.92,0.79-49.38,0.96
		c-7.59-0.14-15.85-0.45-22.44,3.96c-4.72,2.23-3.64,7.78-4.35,12.02c-1.47,10.18-0.96,20.48-0.86,30.73
		c1.38,9.31-0.09,18.77,1.34,28.08c0.17,22-0.01,44,0.08,66c0.13,4-0.82,7.92-0.78,11.92c-0.13,6.22,0.4,12.49-0.52,18.67
		c-0.41,1.2-0.83,2.4-1.25,3.61c-0.53-44.42-0.03-88.85-0.25-133.27c-0.95-9.31-0.97-18.67-0.85-28.02
		c0.31-5.42,2.66-11.46,7.78-14.01c6.54-3.11,13.93-3.83,21.07-3.03C303.91,573.9,320.92,574.59,337.78,572.62z"/>
	<path fill="#FEF53F" stroke="#FEF53F" stroke-width="0.3" d="M261.21,593.23c0.71-4.24-0.37-9.79,4.35-12.02
		c2.74,5.14,1.34,10.98,0.83,16.46c-0.59,4.82-0.6,9.68-0.47,14.54c0.01,1.18,0.02,2.37,0.03,3.57c-0.24,9.08,1.05,18.12,0.66,27.22
		c1,15.64,0.46,31.33,0.59,47c-0.05,9.34,0.09,18.68-0.02,28.02c-0.33,5.45-0.94,10.9-0.42,16.36c-1.95,4.81-4.1,9.55-6.29,14.25
		c0.92-6.18,0.39-12.45,0.52-18.67c-0.04-4,0.91-7.92,0.78-11.92c-0.09-22,0.09-44-0.08-66c-1.43-9.31,0.04-18.77-1.34-28.08
		C260.25,613.71,259.74,603.41,261.21,593.23z"/>
	<path fill="#FCF500" stroke="#FCF500" stroke-width="0.3" d="M0.53,609.63c1.16-1.27,2.68-1.85,4.39-1.7
		c61.52,0.04,123.04,0.02,184.56,0.01c-0.02,0.53-0.06,1.6-0.08,2.13c-60.81-0.04-121.62-0.03-182.43-0.01
		C4.82,610.03,2.67,609.87,0.53,609.63z"/>
	<path fill="#FEF800" stroke="#FEF800" stroke-width="0.3" d="M271.68,609.56c4.42-0.56,8.88-0.24,13.32-0.26
		c211.33,0,422.67-0.01,634,0c25.94-0.14,51.88,0.25,77.81-0.19c1.74-0.13,3.51-0.26,5.27-0.48c0.29,0.62,0.87,1.86,1.16,2.48
		c-2.75,0.1-5.49,0.34-8.23,0.41c-10.33-0.56-20.68-0.17-31.01-0.28c-231.07,0.03-462.15-0.07-693.22,0.05
		C271.01,610.85,271.46,609.99,271.68,609.56z"/>
	<path fill="#0090CE" stroke="#0090CE" stroke-width="0.3" d="M1006.49,611.01c1.03-0.7,2.08-1.37,3.16-2.02
		c2.06,0.48,4.16,0.94,6.31,1.08c141.0099-0.01,282.03,0,423.04,0c5.41-0.13,10.86-0.29,16.1899,0.86
		c-18.3799,0.63-36.7899,0.11-55.1899,0.28c-83,0-166,0-249,0C1102.83,611.07,1054.65,611.48,1006.49,611.01z"/>
	<path fill="#0090CE" stroke="#0090CE" stroke-width="0.3" d="M1638,610.06c6.67-0.05,13.41,0.51,20.03-0.74
		c0.13,0.45,0.39,1.35,0.52,1.81c-43.52,0.18-87.04,0.06-130.55,0.08c-23.73-0.18-47.48,0.36-71.1899-0.28
		c6.6399-1.47,13.45-0.76,20.1899-0.85C1530.67,610.05,1584.33,610.11,1638,610.06z"/>
	<path fill="#0090CD" stroke="#0090CD" stroke-width="0.3" d="M1768.53,609.04c0.46,0.69,0.9399,1.4,1.4399,2.11
		c-31.65,0.16-63.3099-0.02-94.97,0.09c-4.11,0.08-8.22-0.01-12.26-0.64c5.39-0.64,10.83-0.67,16.26-0.55c24,0,48,0,72,0
		C1756.85,610.03,1762.8101,610.63,1768.53,609.04z"/>
	<path fill="#007CB3" stroke="#007CB3" stroke-width="0.3" d="M1836.64,608.97c0.52,0.71,1.0599,1.42,1.62,2.14
		c-15.09,0.26-30.17,0.05-45.26,0.11c-6.08-0.11-12.24,0.59-18.21-0.84c13.72-0.65,27.47-0.12,41.21-0.3
		C1822.87,609.86,1829.92,610.96,1836.64,608.97z"/>
	<path fill="#FEF800" stroke="#FEF800" stroke-width="0.3" d="M1849.58,611.13c1.3301-0.87,2.6801-2.01,4.41-1.87
		c22,0.02,44,0.11,66.01-0.03v2.04c-4.9-0.03-9.8-0.17-14.6801,0.17c-6.8999-0.46-13.8099-0.53-20.6899,0.07
		C1872.96,610.83,1861.25,611.53,1849.58,611.13z"/>
	<path fill="#FDA020" stroke="#FDA020" stroke-width="0.3" d="M1884.63,611.51c6.88-0.6,13.79-0.53,20.6899-0.07
		C1898.46,612.32,1891.48,612.25,1884.63,611.51z"/>
	<path fill="#8A5639" stroke="#8A5639" stroke-width="0.3" d="M1860.99,614.88c4.58-1.46,9.3-0.01,13.97,0.01
		c9.3301,0.06,18.66,0.97,28,0.36c5.67-0.44,11.4301,0.02,17.04-1.18v58.99c-0.29-0.21-0.88-0.63-1.17-0.85
		c-1.46-0.83-3.12-1.23-4.76-1.2c-30.35,0.13-60.72,0.03-91.0699,0.06c-5.05,0.11-10.28-0.75-15.13,0.99
		c-1.47,1.53-1.95,3.55-2.03,5.6c9.37,0.71,18.77,0.16,28.16,0.33c28.66-0.02,57.33,0.03,86-0.03V1088H0V661.11
		c29.33,0.28,58.67,0.04,88,0.12c7.96-0.12,15.94,0.33,23.89-0.33c-0.11-1.48-0.23-2.95-0.36-4.41c-2.82-0.43-5.66-0.79-8.51-0.79
		c-29.01,0.08-58.01,0.02-87.02,0.03c-5.33,0.07-10.82-0.57-16,1.05v-41.75l0.86,0.14c2.34,0.42,4.71,0.76,7.09,0.83
		c52.35-0.09,104.7-0.02,157.05-0.04c7.47,0.07,14.95-0.22,22.42,0.16c0.59,2.27,1.27,4.51,1.97,6.76
		c1.76,10.15-0.19,20.52,1.06,30.73c1.07,7.75,0.21,15.59,0.66,23.39c0.99,11.51,0.1,23.09,1.18,34.6c0.07,1.07,0.14,2.13,0.23,3.21
		c-1.15,8.07,0.85,16.11,0.5,24.19c-0.27,8.43,1.09,16.82,0.53,25.26c-3.75-17.32-11.31-33.45-18.02-49.75
		c-1.18-2.59-2.01-6.08-5.38-6.44c0.36,3.93,2.04,7.52,3.63,11.08c7.38,17.93,15.72,35.86,17.79,55.38
		c-2.84-3.64-5.03-7.71-7.47-11.61c-4.27-6.6-9.06-12.87-14.38-18.65c-5.67-6.75-12.61-12.21-18.87-18.37
		c-0.65,0.88-1.3,1.7599-1.95,2.66c5.25,5.6,11.44,10.25,16.34,16.19c10.16,9.94,17.44,22.26,24.76,34.32
		c-2.97,0.05-5.93,0.06-8.89,0.05c-3.78-9.76-10.49-18.12-17.85-25.43c-0.42,0.59-1.28,1.75-1.71,2.34
		c5.35,7.5699,12.49,14.04,15.79,22.9c-3.58,0.18-7.16,0.26-10.74,0.45c-7.51-5.06-16.68-6.72-25.4-8.48
		c-0.02,0.72-0.07,2.17-0.09,2.89c2.8,0.93,5.59,1.93,8.42,2.78c-4.91,2.18-10.34,1.4-15.53,1.43c-17-0.02-34,0.02-51-0.02
		c-4.7,0.05-9.55-0.6-14.09,0.95c-1.26,1.28-2.4,2.66-3.54,4.06c-1.16,0.35-2.32,0.7-3.48,1.07c0.06,0.69,0.17,2.05,0.23,2.73
		c28.29,0.33,56.59,0.05,84.88,0.14c7.16-0.15,14.38,0.52,21.5-0.58c1.74,2.03,3.43,4.36,6.27,4.85c-0.18-1.38-0.37-2.72-0.58-4.07
		c2.06-0.12,4.12-0.23,6.18-0.35c0.91,2.73,1.82,5.46,2.76,8.1899c0.73-0.03,2.2-0.1,2.94-0.14c-0.6-2.63-1.25-5.25-2.13-7.8
		c3.07-0.05,6.14-0.09,9.22-0.17c0.33,2.18,0.61,4.38,0.92,6.58c2.42-0.16,4.84-0.15,7.25-0.05c-0.68-2.14-1.47-4.24-2.43-6.25
		c1.45-0.06,2.9-0.1,4.36-0.13c0.05,1.65,0.11,3.3,0.17,4.97c1.08,0.03,2.15,0.07,3.23,0.12c0.1-1.74,0.2-3.46,0.32-5.17
		c1.59,0.04,3.18,0.08,4.77,0.14c0.18,1.82,0.33,3.65,0.51,5.48c0.56-0.04,1.67-0.12,2.22-0.16c0.39-1.5,0.77-2.99,1.18-4.48
		c0.22,1.91,0.42,3.83,0.64,5.75c0.71,0.05,2.12,0.14,2.83,0.19c-0.03-2.29-0.11-4.5699-0.24-6.84c2-0.02,4-0.02,6-0.01
		c0.11,4.99,0.53,9.96,1.08,14.92c0.77-0.01,2.29-0.03,3.05-0.04c-0.14-5.05-0.48-10.09-1.01-15.1c0.41,0.11,1.22,0.3199,1.63,0.43
		c0.58,1.04,1.17,2.09,1.78,3.14c0.61-1.1,1.22-2.19,1.76-3.31c1.9-0.02,3.81-0.04,5.71-0.04c1.43,3.23,0.92,7.94,4.08,10.02
		c2.46-2.76,0.4-6.92,0.25-10.23c1.83,0.15,3.68,0.22,5.52,0.3c0.23,2.25-2.06,6.52,1.18,7.03c1.51-2.16,2.28-4.72,2.97-7.23
		c0.59,0.08,1.77,0.25,2.36,0.33c-1.43,2.36-2.5,4.9301-3.44,7.53c0.75,0.05,2.25,0.15,3,0.21c1.83-3.17,3.72-6.29,5.86-9.25
		c0.05,4.35-1.25,8.53-3.37,12.3c0.4,0.33,1.22,1.01,1.63,1.34c0.87-0.58,1.74-1.15,2.62-1.72c0.72,1.15,1.46,2.29,2.2,3.44
		c-0.44-5.33,0.59-10.63,3.78-14.99c1.66,0.51,3.33,1,5,1.51c0.94,0.83,1.89,1.66,2.85,2.47c0.38-1.27,0.76-2.52,1.11-3.78
		c2.14,0.37,4.3,0.64,6.48,0.7c67.34-0.04,134.69-0.01,202.03-0.02c4.83-0.07,9.71,0.4,14.51-0.41c0.02-1.12-0.06-2.22-0.13-3.31
		c0.6-0.05,1.82-0.15,2.42-0.2c0.04-1.38,0.08-2.7599,0.12-4.12c-2.59-0.55-5.21-1.02-7.86-1.04
		c-71.72,0.07-143.44,0.01-215.15,0.03c2.77-5.95,8.43-9.58,13.23-13.72c1.51-1.06,1.85-2.9,2.22-4.57
		c-4.77,1.16-8.17,4.87-11.7,8.01c-3.23,2.89-6.02,6.35-7.6,10.43c-0.73-0.01-2.21-0.03-2.94-0.05
		c8.6-15.22,17.21-30.76,29.54-43.36c6-7.34,13.49-13.1801,20.16-19.86c3.21-3.2599,8.48-5.72,8.4-10.97
		c-6.83,3.22-11.45,9.52-17.03,14.4c-9.45,8.05-17.56,17.51-25.21,27.2401c-0.99-0.35-1.97-0.69-2.95-1.02
		c-7.16,8.19-13.61,16.98-19.91,25.84c1.06-8.08,0.92-16.22,0.76-24.34c4.24-12.33,11.45-23.39,16.16-35.51
		c-0.74-0.14-2.22-0.42-2.96-0.56c-4.22,8.11-8.18,16.36-12.32,24.51c-0.52-5.46,0.09-10.91,0.42-16.36
		c0.11-9.34-0.03-18.68,0.02-28.02c-0.13-15.67,0.41-31.36-0.59-47c0.39-9.1-0.9-18.14-0.66-27.22c1.25-0.15,2.51-0.29,3.78-0.38
		c2.41,0.2,4.82,0.49,7.24,0.5699c522.67-0.03,1045.35,0,1568.03-0.02C1850.33,615.95,1855.8101,616.56,1860.99,614.88
		 M1401.74,644.39c-3.04,0.47-6.6,0.15-8.9299,2.49c-3.8501,3.42-8.8301,5.07-13,8c-6.05,4.12-11.4301,9.13-16.75,14.12
		c-6.4701,13.24-12.4801,27.16-13.79,42.01c-2.65,16.43-1.64,33.93,5.6899,49.09c4.03,7.55,10.5,13.38,16.63,19.21
		c11.8401,8.78,26.8201,11.03,40.37,15.99c-5.5299,5.47-11.95,9.89-18.0299,14.7c-7.6801,5.72-15.42,11.5-24.01,15.81
		c-14.9301,7.21-30.86,11.97-46.38,17.72c-3.23,1.15-5.3,4.03-7.67,6.33c-3.72,3.97-8,7.34-11.8199,11.2
		c-6.52,6.53-14.41,11.44-22.2201,16.27c0.2101,5.03,5,7.78,7.1801,11.85c-0.9401,7.84-3.52,15.41-5.5701,23.01
		c-0.3199,1.19,0.04,2.51,1.3401,2.92c3.62,1.94,7.5599,3.18,11.25,5.01c-0.52,2.78-0.85,5.6-0.8401,8.45
		c6.51,1.32,13.16,1.48,19.76,2.14c1.6801-0.06,3.9,0.84,5.01-0.96c0.3501-4.28,0.16-8.6,1.14-12.81
		c3.89-0.73,7.8201-1.25,11.73-1.89c1.4401,1.57,2.7101,3.38,4.54,4.56c2.74,0.61,5.59,0.34,8.4,0.39c-0.52,2.03-1,4.07-1.5,6.12
		c6.63,2.67,13.6899,4.06,20.62,5.79c0.38-3.05,0.78-6.1,1.28-9.14c5.13,1.32,10.1799,4.73,15.6599,3.21
		c4.8501-2.37,6.41-8.08,8.4401-12.66c3.54,0.89,6.9,2.55,10.53,3.13c10.21-3.65,19.84-9.13,30.58-11.29
		c6.4301-1.52,13.0699-1.65,19.65-1.87c4.6599-0.16,8.1699-4.37,12.9299-4.08c3.92-0.07,7.86-0.11,11.78,0.2599
		c8.05,1.14,16.26-0.24,24.27,1.44c10.25,0.83,20.0699,3.9901,29.77,7.23c7.1599,2.28,14.4199,5.46,22.1,4.8
		c5.02-1.75,8.91-5.8,12.3199-9.75c6.79-9.08,11.3201-19.56,16.8101-29.41c14.49,2.99,29.3099,3.77,44.04,4.6
		c6.86,1.01,12.48-6.08,12.21-12.53c-0.65-11.83-4.45-23.18-6.7-34.75c-1.04-4.86-3.92-9.04-5.3701-13.7599
		c1.92-1.78,4.2201-3.34,5.42-5.7401c0.47-1.71,0.5701-3.48,0.79-5.22c19.6899-2.95,40.2899-4.97,57.95-14.95
		c8.38-4.72,16.15-10.43,23.9-16.11c2.11-1.58,4.46-3.04,5.84-5.38c6.01-8.75,7.92-19.58,8.54-29.99
		c-1.47-15.14-0.3-30.75-5.0699-45.42c-1.65-6.36-5.2301-11.9301-7.89-17.88c-1.0701,0.88-2.9,1.54-2.25,3.27
		c1.2699,8.54,2.38,17.13,2.4199,25.79c-0.9299-0.64-1.83-1.28-2.72-1.9c-1.01,0.4-2,0.8-2.98,1.21
		c-1.04-4.09-2.1901-8.16-3.65-12.12c-6.42,1.61-4.88,9.34-5.78,14.3c-1.96-4.45-3.24-9.19-5.51-13.48
		c-0.6799-1.89-3.46-1.73-4.49-0.29c-0.0399,4.88,1.36,9.66,1.37,14.55c0.27,5.72-0.95,11.34-1.13,17.05
		c-0.24,5.08-1.46,10.22-4.37,14.47c-2.21,3.53-4.85,7.97-9.5399,8.07c-5.3501-0.37-10.3101,1.97-15.4601,2.95
		c-5.4299,1.06-10.7699,2.83-16.34,2.86c-9.03,0.77-17.9299,3.99-27.08,2.71c-2.87-1.85-4.76-4.9-7.77-6.54
		c-3.9-2.14-7.83-4.67-12.39-4.94c-5.35-0.58-10.15,2.28-15.11,3.73c-3.4301-0.44-6.4501-2.48-9.7001-3.56
		c-8.49-3.02-17.0399-6.3101-26.0699-7.21c-7.5-0.7-14.87-2.3-22.39-2.75c1.77-4.26,7.28-6.22,7.53-11.09
		c-5.5,0.67-8.21,6.41-11.51,10.22c-1.3199,0.02-2.62,0.05-3.9,0.08c0.24-5.08,2.02-9.86,3.0801-14.77
		c-0.9-0.59-1.8101-1.13-2.7301-1.62c-2.2,5.04-3.13,10.48-4.01,15.87c-1.4199-0.12-2.8199-0.24-4.2-0.35
		c-1.12-8.15-2.02-16.7-6.27-23.91c-0.64-2.14-3.9-0.19-2.75,1.51c2.98,7.23,5.28,14.85,5.12,22.76
		c-3.38,0.07-4.1799-3.59-5.96-5.69c-0.72-1.58-3.47-0.47-2.96,1.14c0.64,1.71,1.6799,3.2401,2.63,4.82
		c-6.4801,1.08-12.8201,2.78-19,4.9901c-7.15,1.7-14.6001,2.12-21.6101,4.42c-2.24,1.44-3.48,4.03-5.1799,6.03
		c-4.6901-0.09-9.35,0.49-14.01,0.75c-10.65-0.36-21.05-2.98-31.27-5.82c-2.1699-0.53-3.6899-2.23-5.2-3.72
		c-1.14,0.1-2.26,0.22-3.36,0.36c-4.27-3.23-5.87-8.46-7.77-13.22c-3.0801-8.19-1.91-17.06-2.17-25.61
		c-0.29-8.86,3.64-17.02,6.27-25.2599c1.41-7.1,6.4399-13.01,12.45-16.8c3.8101-2.3799,7.28-5.71,8.79-10.04
		c0.41-1.58-1.02-2.81-2.3099-3.33C1409.76,644.96,1405.74,643.79,1401.74,644.39 M545.84,676.79c0.0099,0.79,0.03,2.37,0.04,3.16
		c30.38,0.13,60.77-0.01,91.15,0.07c2.08,0.02,4.16,0.32,6.24,0.54c-32.73,0.44-65.48-0.26-98.2,0.36c0,0.75,0.02,2.25,0.02,3
		c64.98,0.27,129.97,0.05,194.95,0.11c2.04,0.4399,2.86-1.25,3.01-2.97c-0.73-0.06-2.2-0.17-2.93-0.23c0.18-1.21,1.2-2.82-0.46-3.41
		c-4.2-0.52-8.44-0.09-12.66-0.19c-25.67,0-51.33-0.01-77,0.01c-5.01-0.04-9.99-0.79-15-0.65
		C605.28,676.77,575.55,676.36,545.84,676.79 M1809.97,679.32c-0.0399,1.14-0.0499,2.28-0.03,3.43
		c34.02,0.41,68.0601,0.02,102.0901,0.2c1.74,0.18,4.63-0.35,3.95-2.76c-1.12-0.97-2.61-0.96-3.96-0.98
		C1878.01,679.36,1843.99,679.15,1809.97,679.32 M914.25,726.51c106.58,0.13,213.17,0.02,319.75,0.06
		c10.01-0.27,20.08,0.55,30.0601-0.42c-0.0701-1.39-0.13-2.78-0.1801-4.15c-5.8199-1.69-11.9301-0.8-17.88-1
		c-110.01,0.02-220.01-0.04-330.02,0.03C912.27,719.99,909.72,726.3,914.25,726.51 M917.2,728c-0.04,0.77-0.11,2.31-0.14,3.08
		c23.97,0.55,47.96,0.08,71.94,0.24c83,0,166,0,249,0c10.26-0.18,20.55,0.38,30.8101-0.31c0.0099-0.7,0.0199-2.11,0.0299-2.82
		c-7.27-0.61-14.5599-0.4-21.84-0.42c-85,0-170,0-255,0C967.07,727.92,942.12,727.46,917.2,728 M553.88,865.05
		c-1.46,0.79-3.38,1.82-3.14,3.8c0.43,1.53,1.83,2.64,3.48,2.23c-1.8199,0.48-3.64,1.08-5.22,2.11c-0.66,3.12,3.95,2.61,5.97,3.07
		c31.67,0.18,63.36,0.02,95.03,0.08c29.25-0.13,58.5,0.24,87.74-0.19c1.03,0.45,2.11,0.73,3.24,0.8199
		c54.67-0.1,109.35-0.0099,164.02-0.04c5.11-0.09,10.28,0.4,15.36-0.54l-0.87-0.39c2.93-0.74,3.75-3.42,2.63-6
		c-0.5,0-1.5,0.01-2,0.01c0-2.5-1.17-4.39-3.68-4.96l0.9-0.41c-4.73-0.94-9.56-0.52-14.34-0.57c-115.34,0.01-230.69,0-346.03,0
		C555.85,864.1,554.82,864.42,553.88,865.05 M44.45,1009.45c16.82,0.75,33.74-0.59,50.56,0.81c21.99,0.04,43.99-0.03,65.99,0.03
		c7.99,0.13,16.01-0.36,23.97,0.62c23.67,0.21,47.35,0.03,71.03,0.09c5.76,0.08,11.56-0.38,17.27,0.54
		c-36.1,0.26-72.21,0.06-108.32,0.1c-11.29-1.06-22.63-0.52-33.95-0.64c-25,0.11-50-0.2-75-0.15c-3.96,0.03-7.96-0.27-11.88,0.37
		c-0.1,0.44-0.29,1.33-0.39,1.77c1.93,1.58,3.98,3.18,6.38,3.95c3.61,0.49,7.26,0.17,10.89,0.23c70.34-0.02,140.69,0,211.04-0.01
		c4,0.11,7.94,0.98,11.96,0.85c74.41-0.12,148.83,0.17,223.24-0.15c-0.08-1.52,0.24-3.12-0.37-4.54c-1.15-0.58-2.39-1-3.67-0.99
		c0.27-1.88-0.48-2.75-2.25-2.6c-16.63-0.51-33.32,0.61-49.92-0.73c-24.34-0.01-48.69,0-73.04,0c-4.86-0.03-9.79,0.37-14.56-0.79
		l0.86-0.63c-4.72-0.89-9.53-0.5-14.29-0.53c-21.33-0.01-42.67-0.01-64,0c-4.17,0.02-8.38-0.33-12.52,0.43l0.89,0.14
		c-0.48-0.06-1.44-0.19-1.92-0.25l0.89-0.66c-7.7-1.37-15.57-0.33-23.34-0.64c-22.66,0.02-45.32-0.04-67.99,0.03l0.02,1.1
		c-9.67-0.64-19.36-0.15-29.04-0.3c-19,0.0099-38.01-0.02-57.01,0.02c-4.02,0.04-7.95-1-11.96-0.91
		c-12.98,0.11-25.97-0.07-38.95,0.08C42.89,1005.66,41.86,1009.49,44.45,1009.45 M884.83,1014.89c-2.81,0.54-4.51,3.29-2.78,5.82
		c126.65,0.04,253.3,0.0099,379.95,0.02c10.1,0.17,20.23-0.43,30.3199,0.42c-4.37,1.09-8.88,0.81-13.3199,0.78
		c-130.6801-0.01-261.36,0.01-392.04-0.01c-1.72,0-3.5,0.26-4.88,1.36c-0.66,1.4299-0.27,3.0599-0.35,4.6l1.01-0.02
		c0.97,0.66,2.05,1.01,3.24,1.0701c130.67,0.0099,261.35,0,392.02,0c4.77-0.04,9.6,0.37,14.3199-0.6101l-0.8899-0.6499
		c1.8199-0.27,3.6499-0.61,5.5299-0.66c133.6901-0.0601,267.4,0.04,401.1001-0.04c3.0499,0.4301,5.24-1.9,5.1-4.86
		c-1.3401-0.39-2.64-0.81-3.98-0.95c0.5199-1.5699,0.75-3.19,0.7999-4.8199c-1.3099-0.47-2.58-0.95-3.88-1.33
		c-0.98-0.58-2.01-0.9-3.08-0.98c-265.34-0.01-530.6801,0-796.02-0.01C892.94,1014.2,888.68,1013.27,884.83,1014.89z"/>
	<path fill="#9E6241" stroke="#9E6241" stroke-width="0.3" d="M0.86,615.17c9.37-0.44,18.76-0.19,28.14-0.25
		c53.43,0.03,106.86-0.06,160.29,0.04c0.01,2.64-0.03,5.28,0.1,7.92c-0.7-2.25-1.38-4.49-1.97-6.76
		c-7.47-0.38-14.95-0.09-22.42-0.16c-52.35,0.02-104.7-0.05-157.05,0.04C5.57,615.93,3.2,615.59,0.86,615.17z"/>
	<path fill="#9E6241" stroke="#9E6241" stroke-width="0.3" d="M269.73,615.4c6.73-0.81,13.52-0.41,20.27-0.47
		c523.66-0.04,1047.33,0.05,1570.99-0.05c-5.1799,1.68-10.66,1.07-15.99,1.07c-522.6801,0.02-1045.36-0.01-1568.03,0.02
		C274.55,615.89,272.14,615.6,269.73,615.4z"/>
	<path fill="#010100" stroke="#010100" stroke-width="0.3" d="M1401.74,644.39c4-0.6,8.02,0.57,11.6901,2.15
		c1.2899,0.52,2.72,1.75,2.3099,3.33c-1.51,4.33-4.98,7.66-8.79,10.04c-6.01,3.79-11.0399,9.7-12.45,16.8
		c-2.63,8.24-6.5601,16.4-6.27,25.2599c0.26,8.55-0.91,17.42,2.17,25.61c1.9,4.76,3.5,9.99,7.77,13.22c1.1-0.14,2.22-0.26,3.36-0.36
		c1.51,1.49,3.03,3.19,5.2,3.72c10.22,2.84,20.62,5.46,31.27,5.82c4.66-0.26,9.3199-0.84,14.01-0.75c1.7-2,2.9399-4.59,5.1799-6.03
		c7.01-2.3,14.4601-2.72,21.6101-4.42c6.1799-2.21,12.5199-3.91,19-4.9901c-0.9501-1.58-1.99-3.11-2.63-4.82
		c-0.51-1.61,2.24-2.72,2.96-1.14c1.78,2.1,2.58,5.76,5.96,5.69c0.16-7.91-2.14-15.53-5.12-22.76c-1.15-1.7,2.11-3.65,2.75-1.51
		c4.25,7.21,5.15,15.76,6.27,23.91c1.38,0.11,2.78,0.23,4.2,0.35c0.88-5.39,1.8101-10.83,4.01-15.87
		c0.92,0.49,1.8301,1.03,2.7301,1.62c-1.0601,4.91-2.8401,9.69-3.0801,14.77c1.28-0.03,2.5801-0.0601,3.9-0.08
		c3.3-3.81,6.01-9.55,11.51-10.22c-0.25,4.87-5.76,6.83-7.53,11.09c7.52,0.45,14.89,2.05,22.39,2.75
		c9.03,0.9,17.58,4.19,26.0699,7.21c3.25,1.08,6.27,3.12,9.7001,3.56c4.96-1.45,9.76-4.31,15.11-3.73
		c4.5601,0.27,8.49,2.8,12.39,4.94c3.01,1.64,4.9,4.69,7.77,6.54c9.15,1.28,18.0499-1.94,27.08-2.71
		c5.5701-0.03,10.91-1.8,16.34-2.86c5.15-0.98,10.11-3.32,15.4601-2.95c4.6899-0.1,7.33-4.54,9.5399-8.07
		c2.91-4.25,4.13-9.39,4.37-14.47c0.1801-5.71,1.4-11.33,1.13-17.05c-0.01-4.89-1.4099-9.67-1.37-14.55
		c1.03-1.44,3.8101-1.6,4.49,0.29c2.27,4.29,3.55,9.03,5.51,13.48c0.9-4.96-0.64-12.69,5.78-14.3c1.46,3.96,2.61,8.03,3.65,12.12
		c0.98-0.41,1.97-0.81,2.98-1.21c0.89,0.62,1.79,1.26,2.72,1.9c-0.0399-8.66-1.15-17.25-2.4199-25.79
		c-0.65-1.73,1.1799-2.39,2.25-3.27c2.6599,5.95,6.24,11.52,7.89,17.88c4.7699,14.67,3.6,30.28,5.0699,45.42
		c-0.62,10.41-2.53,21.24-8.54,29.99c-1.38,2.34-3.73,3.8-5.84,5.38c-7.75,5.68-15.52,11.39-23.9,16.11
		c-17.66,9.98-38.26,12-57.95,14.95c-0.22,1.74-0.3201,3.51-0.79,5.22c-1.2,2.4-3.5,3.96-5.42,5.7401
		c1.4501,4.72,4.3301,8.9,5.3701,13.7599c2.25,11.57,6.0499,22.92,6.7,34.75c0.27,6.45-5.35,13.54-12.21,12.53
		c-14.7301-0.83-29.55-1.61-44.04-4.6c-5.49,9.85-10.02,20.33-16.8101,29.41c-3.4099,3.95-7.2999,8-12.3199,9.75
		c-7.6801,0.66-14.9401-2.52-22.1-4.8c-9.7001-3.24-19.52-6.4-29.77-7.23c-8.01-1.68-16.22-0.3-24.27-1.44
		c-3.92-0.37-7.86-0.33-11.78-0.2599c-4.76-0.29-8.27,3.92-12.9299,4.08c-6.5801,0.22-13.22,0.35-19.65,1.87
		c-10.74,2.16-20.37,7.64-30.58,11.29c-3.63-0.58-6.99-2.24-10.53-3.13c-2.03,4.58-3.59,10.29-8.4401,12.66
		c-5.48,1.52-10.5299-1.89-15.6599-3.21c-0.5,3.04-0.9,6.09-1.28,9.14c-6.9301-1.73-13.99-3.12-20.62-5.79
		c0.5-2.05,0.98-4.09,1.5-6.12c-2.8101-0.05-5.66,0.22-8.4-0.39c-1.83-1.18-3.1-2.99-4.54-4.56c-3.9099,0.64-7.84,1.16-11.73,1.89
		c-0.98,4.21-0.7899,8.53-1.14,12.81c-1.11,1.8-3.33,0.9-5.01,0.96c-6.6-0.66-13.25-0.82-19.76-2.14
		c-0.0099-2.85,0.3201-5.67,0.8401-8.45c-3.6901-1.83-7.63-3.07-11.25-5.01c-1.3-0.41-1.66-1.73-1.3401-2.92
		c2.05-7.6,4.63-15.17,5.5701-23.01c-2.1801-4.07-6.97-6.82-7.1801-11.85c7.8101-4.83,15.7001-9.74,22.2201-16.27
		c3.8199-3.86,8.1-7.23,11.8199-11.2c2.37-2.3,4.4401-5.18,7.67-6.33c15.52-5.75,31.45-10.51,46.38-17.72
		c8.59-4.31,16.33-10.09,24.01-15.81c6.08-4.81,12.5-9.23,18.0299-14.7c-13.5499-4.96-28.5299-7.21-40.37-15.99
		c-6.13-5.83-12.6-11.66-16.63-19.21c-7.33-15.16-8.34-32.66-5.6899-49.09c1.3099-14.85,7.3199-28.77,13.79-42.01
		c5.3199-4.99,10.7-10,16.75-14.12c4.1699-2.93,9.1499-4.58,13-8C1395.14,644.54,1398.7,644.86,1401.74,644.39 M1402.4301,648.15
		c-1.65-0.08-3.4301-0.52-4.8201,0.61c-3.8099,2.18-7.59,4.42-11.52,6.37c-7.46,3.84-13.3199,9.95-19.6899,15.27
		c-4.6801,8.2-7.9,17.18-10.9,26.13c-2.04,4.81-1.79,10.14-2.8101,15.1899c-1.5699,7.3101-1.25,14.82-1.11,22.25
		c0.4301,14.0601,6.2201,28.16,16.8501,37.6c6.08,7.07,14.83,11.14,23.6899,13.53c1.51,1.4301,3.87,1.4901,5.79,2.1801
		c6.71,1.52,13.0699,4.74,20.0299,4.99c4.54-1.91,7.3-6.3,10.42-9.9c7.35-9.56,14.53-19.28,21.02-29.44
		c-3.87-0.38-7.5699,1.29-11.42,0.75c-10.75-0.75-21.24-3.31-31.62-6.05c-2.4-0.58-4.45-1.94-6.61-3.03c-3.41,0.25-4.88,4-5.86,6.79
		c-0.74-0.1-2.23-0.3-2.97-0.4c0.5699-2.23,1.2899-4.42,2.03-6.6c-1.3401,0.62-2.65,1.27-3.9701,1.87
		c-2.14-2.73,1.2201-4.61,2.9-6.39c-0.92-1.31-2.01-2.58-2.24-4.2c-0.8-3.95-3.09-7.4-3.84-11.35
		c-1.3101-6.36-0.79-12.88-0.89-19.32c-0.0701-4.96,0.01-10,1.33-14.82c1.61-5.66,4.14-11.03,5.24-16.83
		c2.86-6.85,7.78-12.93,14.23-16.7c2.88-1.63,5.0901-4.1801,6.4701-7.17C1408.99,649.26,1405.34,646.22,1402.4301,648.15
		 M1717.13,690.61c0.72,5.71,1.27,11.48,0.6801,17.23c-2.9801,3.61,0.2,7.75,1.3099,11.49c-1.2,0.26-2.37,0.52-3.52,0.76
		c-0.63-2.1801-1.25-4.35-2.15-6.41c-0.47,1.85-0.24,3.93-1.08,5.68c-0.99,0.66-1.74,0.46-2.25-0.6c-0.76-3.66-0.73-7.8-3.16-10.85
		c-1.0599-2.47-1.52-5.35-3.49-7.28c0.11,4.5-0.4199,8.96-1.26,13.39c0.26,2.3,2.9701,7.18-1.12,7.06
		c-2.96-5.39-3.5299-11.94-6.7-17.32c-0.1,9.78,0.02,19.7-2.26,29.27c-1.15,5.24-4.52,9.5099-7.4,13.89
		c2.61,1.8,4.7001,4.19,6.62,6.7c0.04,0.81,0.1,1.64,0.1801,2.47c-1.28-0.28-2.53-0.57-3.75-0.89c-1.39-3.06-4.1-5.16-7.35-5.89
		c1.6,2.6,3.7999,4.86,4.7799,7.83c-0.39,0.28-1.1499,0.84-1.5399,1.12c-3.49-2.44-5.8501-6.97-10.5601-7.24
		c-10.04,2.17-19.97,5.73-30.3199,5.9c-7.38,1.27-14.78,2.49-22.2201,3.36c-3.5499-0.58-7.21-0.27-10.74-1.02
		c-1.4199-0.59-2.58,0.61-2.7,1.97c-0.73,3.94-1.29,8.02-0.47,12.01c0.99,8.52,3.0599,17.1,7.6899,24.42
		c2.38,2.7401,5.49,4.88,8.77,6.42c4.12-0.2,8.1901-0.97,12.25-1.7c18-2.89,36.78-4.98,52.89-14.19
		c7.8099-4.66,15.21-9.99,22.58-15.31c4.0701-2.66,6.61-6.97,8.86-11.16c3.25-8.47,5.14-17.67,4.02-26.75
		c-0.1899-10.6899-0.77-21.41-2.5599-31.95C1719.87,698.88,1719.78,694.19,1717.13,690.61 M1484.5,739.81
		c-0.95,1.11-2,2.27-3.58,2.25c-5.9401,0.79-11.78,2.15-17.67,3.17c-1.95,0.59-4.4301,0.53-5.67,2.38
		c-5.36,8.23-11.4199,15.98-16.9099,24.14c-4.8201,6.45-9.4501,13.07-14.91,19.01c-3.3,3.63-7.83,5.7-12.11,7.9
		c-11.1,9.33-22.5701,18.35-34.84,26.1201c-17.02,10.24-36.4301,15.33-54.91,22.1899c-2.84,2.1-5.05,4.91-7.6,7.34
		c-3.0601,3.29-6.8,5.84-9.8601,9.14c-6.0399,6.29-13.48,10.91-20.73,15.64c2.64,4.41,6.4501,8.02,11.27,9.95
		c5.63,2.15,11.3101,5.92,17.61,4.48c4.73-1.08,9.6-0.77,14.41-1.27l-0.55,0.62c0.6001-0.19,1.79-0.59,2.38-0.79
		c7.03,0.3,14.0601,0.09,21.1001,0.13c3.0099,1.37,6.7799,0.08,9.3999,2.5099c5.5,4.3101,11.25,8.51,17.9,10.89
		c6.9,2.51,13.8101,5.07,20.79,7.31c8.76-2.91,16.97-7.45,25.87-10.03c8.41-2.59,17.3099-2.47,26-3.05
		c5.89-2.03,10.95-5.83,16.61-8.39c10-5.1,20.38-9.88,31.61-11.47c2.5701-0.16,5.76-2.1,7.96-0.02
		c8.27,7.4,16.1901,15.18,24.6901,22.32c3.85,3.08,7.98,6.28,13.02,7.0099c2.2999,0.37,5.01,1.07,7.0599-0.49
		c8.51-4.97,13-14.12,17.55-22.44c5.14-8.94,9.1-18.51,14.62-27.23c1,0.27,2.02,0.56,3.0699,0.85
		c-1.7999,3.6-3.6699,7.18-5.2899,10.87c10.71,1.44,21.3999,3.2401,32.24,3.36c4.2999-0.16,8.53,1.31,12.84,0.69
		c3.98-1.33,6.17-5.69,5.99-9.7c-0.62-5.5-1.5599-10.94-2.8099-16.33c-2.39-10.02-3.88-20.42-9-29.53
		c-3.87,1.0699-7.87,2.12-11.9,1.52c-4.39-1.08-7.92-3.99-11.29-6.83c0.8101-0.89,1.64-1.77,2.46-2.66
		c2.76,2.07,4.9601,5.45,8.66,5.8c2.61,0.35,5.3101,0.31,7.92-0.19c4.98-0.61,9.59-4.9,10.27-9.9c-2.61,0.16-5.55,1.4-7.8501-0.4
		c-3.6699-2.54-7.9399-4.81-9.98-8.98c-5-9.34-7.63-20.04-7.22-30.64c0.52-3.29-0.28-7.09,2.14-9.78c1.39-2.83,4.73-1.07,7.1-0.9301
		c-5.8099-5.38-14.23-10.59-22.33-7.29c-4.88,0.98-6.61,6.47-7.0801,10.8c-0.7699,0.03-2.3099,0.07-3.08,0.1
		c0.05-2.69,0.48-5.34,1.24-7.91c-10.75-4.13-21.54-8.91-32.9-10.83c-8.0499-1.05-16.1-2.16-24.1499-3.03
		c-3.14-0.7-3.6101,2.95-4.9901,4.85c-0.62,1.43-2.5599,1.08-3.09-0.21c0.26-1.94,1.3-3.64,1.98-5.44
		c-1.62,0.46-3.1799,1.03-4.74,1.6c-0.77-0.76-1.5499-1.47-2.35-2.13c-1.6899-0.11-2.78,1.27-4.05,2.07
		c-1.36-0.39-2.2799-1.58-3.3999-2.31c-0.0701,1.48-0.12,2.98-0.25,4.48c-0.67-0.09-2.01-0.2599-2.6801-0.35
		c-0.47-1.27-0.92-2.51-1.37-3.75C1494.21,737.79,1489.45,739.36,1484.5,739.81 M1394.24,742.18c-1.42,0.72-1.48,1.38-0.1799,2
		C1395.42,743.48,1395.49,742.81,1394.24,742.18 M1413.4301,793.2c0.5,1.53,3.48,1.91,4.98,1.47
		C1418.13,792.85,1414.87,792.38,1413.4301,793.2 M1292.45,891.12c-1.7799,7.15-3.58,14.29-5.45,21.42
		c3.38,1.28,6.71,2.7,9.99,4.2401c1.35-7.38,3.64-14.5601,4.78-21.96C1298.67,893.54,1295.59,892.24,1292.45,891.12
		 M1305.1801,896.39c-1.4801,6.97-3.4401,13.84-4.62,20.87c0.3899,3.07-1.7101,5.6-1.8501,8.62c6.03,0.24,12.03,1.21,18.0801,1.15
		c0.86-10.2401,0.74-20.5601,2.2-30.73C1314.4,896.87,1309.72,897.63,1305.1801,896.39 M1322.4,896.19
		c-0.89,5.61-0.4401,11.32-1.4501,16.91c3.55-0.4,7.16-0.52,10.66-1.34c0.25-0.29,0.74-0.85,0.98-1.13
		c0.64-4.91,0.89-9.9,2.26-14.69C1330.6899,895.89,1326.52,895.53,1322.4,896.19 M1338.23,896.03
		c-0.63,5.33-2.0499,10.56-2.45,15.92c0.59,1.7,1.6699,3.17,2.6,4.73c2.74,0.07,5.52-0.01,8.2-0.75c0.25-6.75,2.12-13.29,2.78-19.99
		C1345.65,895.88,1341.9399,895.88,1338.23,896.03 M1353.13,896.34c-2.08,9.14-2.97,18.5-4.74,27.7
		c4.4399,1.36,8.97,2.36,13.47,3.55c1.55-8.1801,2.91-16.4,5.02-24.45C1362.64,900.26,1358.8,895.53,1353.13,896.34 M1369.99,905.1
		c-1.13,4.59-2.14,9.21-2.84,13.9c4.0399,1.72,8.1699,3.99,12.6799,3.88c4.4301-1.57,5.3-6.97,7.0901-10.76
		C1381.12,910.17,1375.42,907.92,1369.99,905.1z"/>
	<path fill="#B7E81C" stroke="#B7E81C" stroke-width="0.3" d="M212.92,645.09c0.79-0.11,2.35-0.33,3.13-0.44
		c4.42,15.44,8.17,31.06,11.5,46.77c4.15,21.76,7.62,43.63,10.89,65.54c1.22-1.16,2.46-2.3,3.73-3.39c1.24,3.84-0.68,7.59-1.3,11.36
		c-1.04,4.57,0.18,9.27,1.62,13.62c2.28-13.67,4.06-27.45,4.82-41.29c0.46-2.79,0.12-5.93,1.74-8.36c1.94-0.15,2.09,1.59,2.09,3.1
		c-0.38,16.5-3.23,32.79-5.38,49.12c1.57,0.29,3.14,0.6,4.72,0.9c2.72-9.98,5.31-20.01,8.74-29.78c0.42-1.21,0.84-2.41,1.25-3.61
		c2.19-4.7,4.34-9.44,6.29-14.25c4.14-8.15,8.1-16.4,12.32-24.51c0.74,0.14,2.22,0.42,2.96,0.56
		c-4.71,12.12-11.92,23.18-16.16,35.51c-2.21,4.77-4.27,9.61-5.7,14.68c-1.16,3.22-2.07,6.54-2.48,9.96
		c-1.67,3.99-2.95,8.12-3.87,12.35c-0.32,1.31-0.62,2.63-0.94,3.96c-0.69,2.51-1.46,5.07-2.97,7.23c-3.24-0.51-0.95-4.78-1.18-7.03
		c0.04-0.45,0.12-1.35,0.16-1.8c-2.02-0.2599-4.05-0.42-6.07-0.54c0.1,0.51,0.29,1.53,0.39,2.04c0.15,3.31,2.21,7.47-0.25,10.23
		c-3.16-2.08-2.65-6.79-4.08-10.02c-0.3-1.01-0.62-2.01-0.94-3c-1.6-0.01-3.2-0.01-4.79,0c0,0.76,0.02,2.28,0.02,3.04
		c-0.54,1.12-1.15,2.21-1.76,3.31c-0.61-1.05-1.2-2.1-1.78-3.14c0.91-1.29-1.01-4.71-1.91-2.26c0.07,0.45,0.21,1.37,0.28,1.83
		c0.53,5.0099,0.87,10.05,1.01,15.1c-0.76,0.01-2.28,0.03-3.05,0.04c-0.55-4.96-0.97-9.93-1.08-14.92
		c-0.04-0.69-0.11-2.08-0.15-2.78c-2-0.12-4.01-0.2-6.01-0.27c0.04,0.77,0.12,2.29,0.16,3.06c0.13,2.27,0.21,4.55,0.24,6.84
		c-0.71-0.05-2.12-0.14-2.83-0.19c-0.22-1.92-0.42-3.84-0.64-5.75c-0.41,1.4901-0.79,2.98-1.18,4.48c-0.55,0.04-1.66,0.12-2.22,0.16
		c-0.18-1.83-0.33-3.66-0.51-5.48c-0.06-0.48-0.18-1.43-0.24-1.91c-1.44-0.2-2.89-0.33-4.34-0.39c-0.05,0.54-0.14,1.62-0.19,2.16
		c-0.12,1.71-0.22,3.43-0.32,5.17c-1.08-0.05-2.15-0.09-3.23-0.12c-0.06-1.67-0.12-3.32-0.17-4.97c-0.02-0.47-0.04-1.42-0.06-1.89
		c-1.72,0.09-3.44,0.17-5.16,0.24c0.21,0.44,0.64,1.33,0.86,1.78c0.96,2.01,1.75,4.11,2.43,6.25c-2.41-0.1-4.83-0.11-7.25,0.05
		c-0.31-2.2-0.59-4.4-0.92-6.58c-0.1-0.47-0.28-1.42-0.38-1.89c-0.69-2.0699-1.67-4.03-2.78-5.9c-7.32-12.06-14.6-24.38-24.76-34.32
		c-4.9-5.94-11.09-10.59-16.34-16.19c0.65-0.9,1.3-1.78,1.95-2.66c6.26,6.16,13.2,11.62,18.87,18.37
		c5.32,5.78,10.11,12.05,14.38,18.65c2.44,3.9,4.63,7.97,7.47,11.61c-2.07-19.52-10.41-37.45-17.79-55.38
		c-1.59-3.56-3.27-7.15-3.63-11.08c3.37,0.36,4.2,3.85,5.38,6.44c6.71,16.3,14.27,32.43,18.02,49.75
		c0.81,5.89,1.64,11.79,2.59,17.67c0.48,0.02,1.45,0.04,1.93,0.06c1.63-0.03,3.27-0.11,4.9-0.17c0.96-8.16-0.12-16.37-1.26-24.44
		c-1.29-7.32-2.34-14.73-4.77-21.77c-0.74-7.07-2.68-13.93-4.42-20.8c-0.09-1.08-0.16-2.14-0.23-3.21c1.23,0.02,2.47,0.07,3.7,0.16
		c0.72,7.66,3.14,15.03,4.66,22.55c3.64,15.37,6.35,31.08,6.35,46.92c1.37-0.03,2.73-0.05,4.1-0.07
		c-0.26-3.61-0.65-7.21-0.92-10.8199c1.26-0.32,2.51-0.63,3.77-0.92c-0.76-6.45-1.36-12.92-1.6-19.41
		c0.12-9.14,1.47-18.21,2.26-27.3c0.67-0.2,2-0.61,2.66-0.81c0.26,1.53,0.58,3.09,0.43,4.67c-0.78,8.14-1.75,16.29-1.74,24.47
		c0.6,9.91,1.29,19.82,2.28,29.71c1.93-0.02,3.85-0.03,5.79-0.01c0.05-9.36-2.58-18.5-2.37-27.85c0.76,0.07,2.3,0.22,3.06,0.29
		c1.52,9.35,1.33,18.97,3.58,28.19c0.29-2.31,0.52-4.62,0.84-6.91c2.53,0.97,2.99,3.69,3.66,6.0099c1.35,0.14,2.69,0.27,4.05,0.4301
		c-0.11-5.4301,0.21-10.89-0.59-16.28c-3.33-20.57-6.32-41.2-10.09-61.7C222.84,683.41,217.58,664.31,212.92,645.09 M214.13,784.19
		c-0.54,1.65,0,2.21,1.61,1.67C216.25,784.23,215.71,783.67,214.13,784.19z"/>
	<path fill="#7092BE" stroke="#7092BE" stroke-width="0.3" d="M1402.4301,648.15c2.9099-1.9301,6.5599,1.11,9.73,1.33
		c-1.38,2.99-3.5901,5.54-6.4701,7.17c-6.45,3.77-11.37,9.85-14.23,16.7c-1.1,5.8-3.63,11.17-5.24,16.83
		c-1.3199,4.82-1.4,9.86-1.33,14.82c0.1,6.44-0.42,12.96,0.89,19.32c0.75,3.95,3.0399,7.4,3.84,11.35
		c0.23,1.62,1.3199,2.89,2.24,4.2c-1.6799,1.78-5.04,3.66-2.9,6.39c1.3201-0.6,2.63-1.25,3.9701-1.87
		c-0.7401,2.18-1.4601,4.37-2.03,6.6c0.74,0.1,2.23,0.3,2.97,0.4c0.98-2.79,2.45-6.54,5.86-6.79c2.16,1.09,4.21,2.45,6.61,3.03
		c10.38,2.74,20.87,5.3,31.62,6.05c3.8501,0.54,7.55-1.13,11.42-0.75c-6.49,10.16-13.67,19.88-21.02,29.44
		c-3.12,3.6-5.88,7.99-10.42,9.9c-6.96-0.25-13.3199-3.47-20.0299-4.99c-1.92-0.69-4.28-0.75-5.79-2.1801
		c-2.23-2.87-4.9399-5.28-7.92-7.3199c-4.5699-3.05-7.0199-8.39-11.87-11.0601c-7.48-4.03-11.8199-12.4-12.4099-20.6899
		c-0.2301-2.7401-1.27-5.3-2.1001-7.88c-0.74-7.12,0.2401-14.25,1.2001-21.3c3.26-11.11,7.21-22.05,12.3099-32.46
		c2.54-6.06,6.8301-11.1,10.7201-16.31C1388.16,660.78,1394.6899,653.76,1402.4301,648.15z"/>
	<path fill="#FEC90E" stroke="#FEC90E" stroke-width="0.3" d="M1397.61,648.76c1.39-1.13,3.17-0.69,4.8201-0.61
		c-7.7401,5.61-14.27,12.63-20.38,19.93c-3.89,5.21-8.1801,10.25-10.7201,16.31c-5.1,10.41-9.0499,21.35-12.3099,32.46
		c-2.21,6.82-3.03,14.3-1.2001,21.3c0.8301,2.58,1.87,5.14,2.1001,7.88c0.59,8.29,4.9299,16.66,12.4099,20.6899
		c4.8501,2.67,7.3,8.01,11.87,11.0601c2.9801,2.04,5.6901,4.45,7.92,7.3199c-8.86-2.39-17.61-6.46-23.6899-13.53
		c-10.63-9.44-16.42-23.54-16.8501-37.6c-0.14-7.43-0.46-14.9399,1.11-22.25c1.02-5.05,0.77-10.3799,2.8101-15.1899
		c3-8.95,6.22-17.9301,10.9-26.13c6.37-5.32,12.23-11.4301,19.6899-15.27C1390.02,653.18,1393.8,650.94,1397.61,648.76
		 M1361.24,684.22C1361.76,684.77,1361.76,684.77,1361.24,684.22z"/>
	<path fill="#FEF301" stroke="#FEF301" stroke-width="0.3" d="M0,656.78c5.18-1.6201,10.67-0.98,16-1.05
		c29.01-0.01,58.01,0.05,87.02-0.03c2.85,0,5.69,0.36,8.51,0.79c0.13,1.46,0.25,2.93,0.36,4.41c-7.95,0.66-15.93,0.21-23.89,0.33
		c-29.33-0.08-58.67,0.16-88-0.12V656.78z"/>
	<path fill="#753944" stroke="#753944" stroke-width="0.3" d="M1807.87,672.06c4.85-1.74,10.08-0.88,15.13-0.99
		c30.35-0.03,60.72,0.07,91.0699-0.06c1.64-0.03,3.3,0.37,4.76,1.2c-28.9399,0.16-57.89,0.04-86.83,0.07
		C1823.95,672.2,1815.9,672.5,1807.87,672.06z"/>
	<path fill="#FEF400" stroke="#FEF400" stroke-width="0.3" d="M1807.87,672.06c8.03,0.44,16.08,0.14,24.13,0.22
		c28.9399-0.03,57.89,0.09,86.83-0.07c0.29,0.22,0.88,0.64,1.17,0.85v4.9c-28.67,0.06-57.34,0.0099-86,0.03
		c-9.39-0.17-18.79,0.38-28.16-0.33C1805.92,675.61,1806.4,673.59,1807.87,672.06z"/>
	<path fill="#B5ED1C" stroke="#B5ED1C" stroke-width="0.3" d="M545.84,676.79c29.71-0.43,59.44-0.02,89.16-0.2
		c5.01-0.14,9.99,0.61,15,0.65c25.67-0.02,51.33-0.01,77-0.01c4.22,0.1,8.46-0.33,12.66,0.19c1.66,0.59,0.64,2.2,0.46,3.41
		c-32.28-0.36-64.57,0.19-96.85-0.27c-2.08-0.22-4.16-0.52-6.24-0.54c-30.38-0.08-60.77,0.06-91.15-0.07
		C545.87,679.16,545.85,677.58,545.84,676.79z"/>
	<path fill="#040302" stroke="#040302" stroke-width="0.3" d="M1809.97,679.32c34.02-0.17,68.04,0.04,102.05-0.11
		c1.35,0.02,2.84,0.0099,3.96,0.98c0.6801,2.41-2.21,2.94-3.95,2.76c-34.03-0.18-68.0701,0.21-102.0901-0.2
		C1809.92,681.6,1809.9301,680.46,1809.97,679.32z"/>
	<path fill="#020200" stroke="#020200" stroke-width="0.3" d="M545.07,680.92c32.72-0.62,65.47,0.08,98.2-0.36
		c32.28,0.46,64.57-0.09,96.85,0.27c0.73,0.06,2.2,0.17,2.93,0.23c-0.15,1.72-0.97,3.41-3.01,2.97
		c-64.98-0.0601-129.97,0.16-194.95-0.11C545.09,683.17,545.07,681.67,545.07,680.92z"/>
	<path fill="#614805" stroke="#614805" stroke-width="0.3" d="M1361.24,684.22C1361.76,684.77,1361.76,684.77,1361.24,684.22z"/>
	<path fill="#7092BE" stroke="#7092BE" stroke-width="0.3" d="M1717.13,690.61c2.65,3.58,2.74,8.27,4.03,12.41
		c1.7899,10.54,2.37,21.26,2.5599,31.95c1.12,9.08-0.77,18.28-4.02,26.75c-2.25,4.19-4.7899,8.5-8.86,11.16
		c-7.37,5.32-14.77,10.65-22.58,15.31c-16.11,9.21-34.89,11.3-52.89,14.19c-4.0599,0.73-8.13,1.5-12.25,1.7
		c-3.28-1.54-6.39-3.68-8.77-6.42c-4.63-7.3199-6.7-15.9-7.6899-24.42c-0.8201-3.99-0.26-8.07,0.47-12.01
		c0.12-1.36,1.28-2.56,2.7-1.97c3.53,0.75,7.1901,0.44,10.74,1.02c1.14,0.5099,2.27,1.09,3.4701,1.6c2.48,1.12,5.25,1.17,7.95,1.14
		c8.67-0.19,17.34-0.08,26.01-0.11c5.66-0.04,11.4399,0.59,17-0.89c3.12-0.6,6.08-1.9,8.67-3.76c0.39-0.28,1.1499-0.84,1.5399-1.12
		c0.8401-0.65,1.6901-1.3,2.5701-1.94c1.22,0.32,2.47,0.61,3.75,0.89c-0.0801-0.83-0.14-1.66-0.1801-2.47
		c2.88-2.62,5.64-5.5,7.13-9.17c1.6-3.86,3.92-7.32,5.9-10.97c3.27-8.11,2.76-17.01,2.58-25.57c2.4301,3.05,2.4,7.19,3.16,10.85
		c0.51,1.06,1.26,1.26,2.25,0.6c0.84-1.75,0.61-3.83,1.08-5.68c0.9,2.06,1.52,4.23,2.15,6.41c1.15-0.2401,2.3201-0.5,3.52-0.76
		c-1.11-3.74-4.29-7.88-1.3099-11.49C1718.4,702.09,1717.85,696.32,1717.13,690.61z"/>
	<path fill="#FFC90E" stroke="#FFC90E" stroke-width="0.3" d="M1703.47,700.63c1.97,1.93,2.4301,4.81,3.49,7.28
		c0.1801,8.56,0.6901,17.46-2.58,25.57c-1.98,3.65-4.3,7.11-5.9,10.97c-1.49,3.67-4.25,6.55-7.13,9.17
		c-1.9199-2.51-4.01-4.9-6.62-6.7c2.88-4.38,6.25-8.65,7.4-13.89c2.28-9.57,2.16-19.4901,2.26-29.27c3.17,5.38,3.74,11.93,6.7,17.32
		c4.0901,0.12,1.38-4.76,1.12-7.06C1703.05,709.59,1703.58,705.13,1703.47,700.63z"/>
	<path fill="#B5E71D" stroke="#B5E71D" stroke-width="0.3" d="M313.19,718.22c5.58-4.8799,10.2-11.18,17.03-14.4
		c0.08,5.25-5.19,7.71-8.4,10.97c-6.67,6.68-14.16,12.52-20.16,19.86c-12.33,12.6-20.94,28.14-29.54,43.36
		c-0.99,1.77-1.97,3.53-2.98,5.3c-0.54,0.91-1.07,1.84-1.61,2.77c-3.19,4.36-4.22,9.66-3.78,14.99c-0.74-1.15-1.48-2.29-2.2-3.44
		c-0.88,0.57-1.75,1.14-2.62,1.72c-0.41-0.33-1.23-1.0099-1.63-1.34c2.12-3.77,3.42-7.95,3.37-12.3c-2.14,2.96-4.03,6.08-5.86,9.25
		c-0.75-0.06-2.25-0.16-3-0.21c0.94-2.6,2.01-5.17,3.44-7.53c0.86-1.35,1.69-2.71,2.46-4.1l0.37-0.69c0.59-1.04,1.19-2.07,1.81-3.08
		c1.87-2.95,3.66-5.95,5.23-9.0699c6.3-8.86,12.75-17.65,19.91-25.84c0.98,0.33,1.96,0.67,2.95,1.02
		C295.63,735.73,303.74,726.27,313.19,718.22 M272.26,766.29c-2.6,3.68-5.59,7.4901-5.99,12.16c-1.73,1.19-1.5,3.81-2.12,5.66
		c1.77-1.82,3.11-4.01,3.64-6.51c2.5-1.93,3.33-5.3,5-7.89c2.59-5.12,6.4-9.58,8.47-14.97
		C277.88,758.27,275.28,762.45,272.26,766.29z"/>
	<path fill="#000100" stroke="#000100" stroke-width="0.3" d="M193.02,739c0.35-8.08-1.65-16.12-0.5-24.19
		c1.74,6.87,3.68,13.73,4.42,20.8c-1.16,9.12,0.42,18.25,0.05,27.39c-0.28,6.36,0.92,12.64,1.08,18.99
		c-0.48-0.02-1.45-0.04-1.93-0.06c-0.95-5.88-1.78-11.78-2.59-17.67C194.11,755.82,192.75,747.43,193.02,739z"/>
	<path fill="#86867E" stroke="#86867E" stroke-width="0.3" d="M1357.8199,738.15c-1.83-7-1.0099-14.48,1.2001-21.3
		C1358.0601,723.9,1357.08,731.03,1357.8199,738.15z"/>
	<path fill="#FEF500" stroke="#FEF500" stroke-width="0.3" d="M914.25,726.51c-4.53-0.21-1.98-6.52,1.73-5.48
		c110.01-0.07,220.01-0.01,330.02-0.03c5.95,0.2,12.0601-0.69,17.88,1c0.05,1.37,0.11,2.76,0.1801,4.15
		c-9.9801,0.97-20.05,0.15-30.0601,0.42C1127.42,726.53,1020.83,726.64,914.25,726.51z"/>
	<path fill="#020100" stroke="#020100" stroke-width="0.3" d="M917.2,728c24.92-0.54,49.87-0.08,74.8-0.23c85,0,170,0,255,0
		c7.28,0.02,14.5699-0.19,21.84,0.42c-0.01,0.71-0.02,2.12-0.0299,2.82c-10.26,0.69-20.55,0.13-30.8101,0.31c-83,0-166,0-249,0
		c-23.98-0.16-47.97,0.31-71.94-0.24C917.09,730.31,917.16,728.77,917.2,728z"/>
	<path fill="#22B14D" stroke="#22B14D" stroke-width="0.3" d="M196.94,735.61c2.43,7.04,3.48,14.45,4.77,21.77
		c1.14,8.07,2.22,16.28,1.26,24.44c-1.63,0.06-3.27,0.14-4.9,0.17c-0.16-6.35-1.36-12.63-1.08-18.99
		C197.36,753.86,195.78,744.73,196.94,735.61z"/>
	<path fill="#FFC90E" stroke="#FFC90E" stroke-width="0.3" d="M1484.5,739.81c4.95-0.45,9.71-2.02,14.62-2.81
		c0.45,1.24,0.9,2.48,1.37,3.75c0.67,0.09,2.01,0.26,2.6801,0.35c0.13-1.5,0.1799-3,0.25-4.48c1.12,0.73,2.0399,1.92,3.3999,2.31
		c1.27-0.8,2.3601-2.18,4.05-2.07c0.8,0.66,1.58,1.37,2.35,2.13c1.5601-0.57,3.12-1.14,4.74-1.6c-0.6799,1.8-1.72,3.5-1.98,5.44
		c0.53,1.29,2.47,1.64,3.09,0.21c1.38-1.9,1.8501-5.55,4.9901-4.85c8.0499,0.87,16.1,1.98,24.1499,3.03
		c-2.4099,1.21-4.6599,2.7-7.0699,3.89c-5.16,2.41-11.46,0.39-16.3101,3.7c-13.1699,7.4-25.85,18.74-28.88,34.2
		c-0.61,4.24-4.4399,6.92-7.51,9.48c-5.6799,4.27-12.1799,7.18-18.33,10.66c-6.11,4.46-11.9299,9.34-17.37,14.59
		c-4.5599,3.77-8.83,8.25-14.51,10.3c-7.79,2.4-16.73,0.79-23.84,5.39c-7.86,5.14-16.77,8.32-24.85,13.06
		c-2.92,1.68-5.6001,3.75-8.51,5.45c-4.37,2.32-9.3101,3.27-14.1901,3.67c-3.86,0.5-8.1799,0.26-11.34,2.92
		c-4.37,2.73-6.5699,7.5099-9.1801,11.74c-2.5699,4.34-6.45,7.67-9.25,11.85c-2.4299,3.58-5.13,6.96-8.0699,10.13
		c-4.8101,0.5-9.6801,0.19-14.41,1.27c-6.2999,1.44-11.98-2.33-17.61-4.48c-4.8199-1.93-8.63-5.54-11.27-9.95
		c7.25-4.73,14.6901-9.35,20.73-15.64c3.0601-3.3,6.8-5.85,9.8601-9.14c2.5499-2.43,4.76-5.24,7.6-7.34
		c18.48-6.86,37.89-11.95,54.91-22.1899c12.2699-7.77,23.74-16.79,34.84-26.1201c4.28-2.2,8.8099-4.27,12.11-7.9
		c5.46-5.94,10.09-12.56,14.91-19.01c5.49-8.16,11.5499-15.91,16.9099-24.14c1.24-1.85,3.7201-1.79,5.67-2.38
		c5.89-1.02,11.73-2.38,17.67-3.17C1482.5,742.08,1483.55,740.92,1484.5,739.81 M1451.83,763.38c-1.21,3.07-3.97,5.02-6.0499,7.45
		c-3.52,4.23-7.77,8.05-9.89,13.26c-1.6901,4.74-4.8101,10.05-1.53,14.86c4.36,1.53,8.87,0.04,12.97-1.58
		c4.7101-3.22,8.51-7.6,12.39-11.74c4.3301-6.53,8.14-14.11,7.1-22.21C1461.9399,761.58,1456.73,761.76,1451.83,763.38z"/>
	<path fill="#7092BE" stroke="#7092BE" stroke-width="0.3" d="M1548.21,741.22c11.36,1.92,22.15,6.7,32.9,10.83
		c-0.76,2.57-1.1899,5.22-1.24,7.91c0.77-0.03,2.3101-0.07,3.08-0.1c0.4701-4.33,2.2001-9.82,7.0801-10.8
		c8.1-3.3,16.52,1.91,22.33,7.29c-2.37-0.14-5.71-1.9-7.1,0.9301c-2.42,2.6899-1.62,6.49-2.14,9.78c-0.41,10.6,2.22,21.3,7.22,30.64
		c2.04,4.17,6.3101,6.44,9.98,8.98c2.3,1.8,5.2401,0.56,7.8501,0.4c-0.6801,5-5.29,9.29-10.27,9.9c-2.61,0.5-5.3101,0.54-7.92,0.19
		c-3.7-0.35-5.9-3.73-8.66-5.8c-0.8199,0.89-1.6499,1.77-2.46,2.66c3.37,2.84,6.9,5.75,11.29,6.83c4.03,0.6,8.03-0.45,11.9-1.52
		c5.12,9.11,6.61,19.5099,9,29.53c1.25,5.39,2.1899,10.83,2.8099,16.33c0.1801,4.01-2.01,8.37-5.99,9.7
		c-4.3099,0.62-8.54-0.85-12.84-0.69c-10.8401-0.12-21.53-1.92-32.24-3.36c1.62-3.69,3.49-7.27,5.2899-10.87
		c-1.0499-0.29-2.0699-0.58-3.0699-0.85c-5.52,8.72-9.48,18.29-14.62,27.23c-4.55,8.32-9.04,17.47-17.55,22.44
		c-2.0499,1.56-4.76,0.86-7.0599,0.49c-5.04-0.73-9.17-3.93-13.02-7.0099c-8.5-7.14-16.42-14.92-24.6901-22.32
		c-2.2-2.08-5.3899-0.14-7.96,0.02c-11.23,1.59-21.61,6.37-31.61,11.47c-5.66,2.56-10.72,6.36-16.61,8.39
		c-8.6901,0.58-17.59,0.46-26,3.05c-8.9,2.58-17.11,7.12-25.87,10.03c-6.98-2.24-13.89-4.8-20.79-7.31
		c-6.65-2.38-12.4-6.58-17.9-10.89c-2.62-2.43-6.39-1.14-9.3999-2.5099c-3.4501-1.52-7.27-1.21-10.9301-1.2401
		c-3.42-0.02-6.92-0.09-10.17,1.11c-0.59,0.2-1.7799,0.6-2.38,0.79l0.55-0.62c2.9399-3.17,5.64-6.55,8.0699-10.13
		c2.8-4.18,6.6801-7.51,9.25-11.85c2.6101-4.23,4.8101-9.01,9.1801-11.74c3.16-2.66,7.48-2.42,11.34-2.92
		c4.88-0.4,9.8201-1.35,14.1901-3.67c2.9099-1.7,5.59-3.77,8.51-5.45c8.08-4.74,16.99-7.92,24.85-13.06
		c7.11-4.6,16.0499-2.99,23.84-5.39c5.6801-2.05,9.9501-6.53,14.51-10.3c5.4401-5.25,11.26-10.13,17.37-14.59
		c6.15-3.48,12.65-6.39,18.33-10.66c3.0701-2.56,6.9-5.24,7.51-9.48c3.03-15.46,15.7101-26.8,28.88-34.2
		c4.8501-3.31,11.15-1.29,16.3101-3.7C1543.55,743.92,1545.8,742.43,1548.21,741.22 M1523.4399,772.44
		c-5.0199,1.29-9.2599,4.88-11.6,9.47c-5.9299,11.11-5.6,25.4,1.14,36.08c2.5701,4.26,7.2001,7.15,12.1,7.82
		c4.54-0.27,9.02-2.35,11.63-6.18c8.8-12.47,8.78-31.22-1.51-42.84C1532.03,774.09,1527.76,771.47,1523.4399,772.44 M1451.84,848.67
		c-8.27,1.34-16.12,4.56-23.1599,9.07c-8.13,5.13-16.42,10.08-24.04,15.95c-1.76,1.1,0.71,3.64,2.16,2.39
		c11.74-7,22.36-16.01,35.1499-21.16c8.2301-3.35,17.2201-3.62,25.87-5.21c0.05-0.7401,0.15-2.22,0.2001-2.96
		C1462.55,846.53,1457.2,847.85,1451.84,848.67z"/>
	<path fill="#C5C5C4" stroke="#C5C5C4" stroke-width="0.3" d="M1394.24,742.18c1.25,0.63,1.1801,1.3-0.1799,2
		C1392.76,743.56,1392.8199,742.9,1394.24,742.18z"/>
	<path fill="#FDF63F" stroke="#FDF63F" stroke-width="0.3" d="M260.18,760.62c1.43-5.07,3.49-9.91,5.7-14.68
		c0.16,8.12,0.3,16.26-0.76,24.34c-1.57,3.12-3.36,6.12-5.23,9.0699C259.22,773.1,260.12,766.86,260.18,760.62z"/>
	<path fill="#FDDD0D" stroke="#FDDD0D" stroke-width="0.3" d="M1680.4301,749.31c3.25,0.73,5.96,2.83,7.35,5.89
		c-0.88,0.64-1.73,1.29-2.5701,1.94C1684.23,754.17,1682.03,751.91,1680.4301,749.31z"/>
	<path fill="#FEC90E" stroke="#FEC90E" stroke-width="0.3" d="M1642.79,756.92c10.35-0.17,20.2799-3.73,30.3199-5.9
		c4.71,0.27,7.0701,4.8,10.5601,7.24c-2.5901,1.86-5.55,3.16-8.67,3.76c-16.99-0.11-33.99,0.16-50.96-0.14
		c-1.2001-0.51-2.3301-1.09-3.4701-1.6C1628.01,759.41,1635.41,758.19,1642.79,756.92z"/>
	<path fill="#B5E81D" stroke="#B5E81D" stroke-width="0.3" d="M163.26,753.69c7.36,7.31,14.07,15.67,17.85,25.43
		c0.72,1.88,1.38,3.8,2.05,5.71c0.2,0.55,0.59,1.65,0.78,2.2c0.88,2.55,1.53,5.17,2.13,7.8c-0.74,0.04-2.21,0.11-2.94,0.14
		c-0.94-2.73-1.85-5.46-2.76-8.1899c-0.16-0.44-0.48-1.32-0.64-1.76c-0.77-2.05-1.56-4.08-2.39-6.09
		c-3.3-8.86-10.44-15.33-15.79-22.9C161.98,755.44,162.84,754.28,163.26,753.69z"/>
	<path fill="#8B5739" stroke="#8B5739" stroke-width="0.3" d="M272.26,766.29c3.02-3.84,5.62-8.02,9-11.55
		c-2.07,5.39-5.88,9.85-8.47,14.97c-1.67,2.59-2.5,5.96-5,7.89c-0.38,0.21-1.14,0.64-1.52,0.85
		C266.67,773.78,269.66,769.97,272.26,766.29z"/>
	<path fill="#B5E71D" stroke="#B5E71D" stroke-width="0.3" d="M282.66,767.63c3.53-3.14,6.93-6.85,11.7-8.01
		c-0.37,1.67-0.71,3.51-2.22,4.57c-4.8,4.14-10.46,7.77-13.23,13.72c-0.64,1.76-1.15,3.57-1.64,5.39c-0.19,0.74-0.58,2.24-0.78,2.98
		c-0.35,1.2599-0.73,2.5099-1.11,3.78c-0.96-0.81-1.91-1.64-2.85-2.47c0.44-1.45,0.87-2.89,1.23-4.34c0.43-1.74,0.82-3.48,1.3-5.19
		C276.64,773.98,279.43,770.52,282.66,767.63z"/>
	<path fill="#030101" stroke="#030101" stroke-width="0.3" d="M257.7,770.58c0.41-3.42,1.32-6.74,2.48-9.96
		c-0.06,6.24-0.96,12.48-0.29,18.73c-0.62,1.01-1.22,2.04-1.81,3.08C257.91,778.48,257.9,774.52,257.7,770.58z"/>
	<path stroke="#000000" stroke-width="0.3" d="M1451.83,763.38c4.9-1.62,10.11-1.8,14.99,0.04c1.04,8.1-2.7699,15.68-7.1,22.21
		c-3.88,4.14-7.6799,8.52-12.39,11.74c-4.1,1.62-8.61,3.11-12.97,1.58c-3.28-4.81-0.16-10.12,1.53-14.86
		c2.12-5.21,6.37-9.03,9.89-13.26C1447.86,768.4,1450.62,766.45,1451.83,763.38 M1446.39,775.43c-5.55,5.3-9.25,12.39-10.5,19.96
		c3.74-4.27,5.79-9.74,9.29-14.21c4.25-6.43,10.7-10.84,16.1699-16.08C1454.37,764.38,1450.5601,771.05,1446.39,775.43z"/>
	<path fill="#677DA8" stroke="#677DA8" stroke-width="0.3" d="M1624.04,761.88c16.97,0.3,33.97,0.03,50.96,0.14
		c-5.5601,1.48-11.34,0.85-17,0.89c-8.67,0.03-17.34-0.08-26.01,0.11C1629.29,763.05,1626.52,763,1624.04,761.88z"/>
	<path fill="#FFFFFF" stroke="#FFFFFF" stroke-width="0.3" d="M1446.39,775.43c4.17-4.38,7.98-11.05,14.96-10.33
		c-5.47,5.2401-11.9199,9.65-16.1699,16.08c-3.5,4.47-5.55,9.94-9.29,14.21C1437.14,787.82,1440.84,780.73,1446.39,775.43z"/>
	<path fill="#B6E81C" stroke="#B6E81C" stroke-width="0.3" d="M141.2,770.9c8.72,1.7599,17.89,3.42,25.4,8.48
		c1.76,1.79,3.42,3.69,5.2,5.47c0.79,0.76,1.58,1.52,2.39,2.28c0.21,1.35,0.4,2.69,0.58,4.07c-2.84-0.49-4.53-2.82-6.27-4.85
		c-0.32-0.34-0.97-1.03-1.29-1.38c-2.47-2.68-5.55-4.81-9.03-5.9399c-2.82-1.04-5.75-1.71-8.65-2.46c-2.83-0.85-5.62-1.85-8.42-2.78
		C141.13,773.07,141.18,771.62,141.2,770.9z"/>
	<path fill="#22B14D" stroke="#22B14D" stroke-width="0.3" d="M253.83,782.93c0.92-4.23,2.2-8.36,3.87-12.35
		c0.2,3.94,0.21,7.9,0.38,11.85l-0.37,0.69C256.41,783.05,255.12,782.99,253.83,782.93z"/>
	<path stroke="#000000" stroke-width="0.3" d="M1523.4399,772.44c4.3201-0.97,8.5901,1.65,11.76,4.35
		c10.29,11.62,10.3101,30.37,1.51,42.84c-2.61,3.83-7.09,5.91-11.63,6.18c-4.8999-0.67-9.5299-3.56-12.1-7.82
		c-6.74-10.68-7.0699-24.97-1.14-36.08C1514.1801,777.32,1518.42,773.73,1523.4399,772.44 M1521.02,777.01
		c-6.67,3.88-8.86,11.91-9.9301,19.03c-0.48,8.05,1.4501,16.76,6.9701,22.89c2.4399,2.03,5.6799,4.22,8.99,3.04
		c-1.5601-0.52-3.12-0.9399-4.6801-1.34c-1.5599-2.74-3.63-5.18-4.95-8.05c-2.4401-6.18-3.51-12.93-2.51-19.52
		c2.25-7.23,7.7-12.83,13.7999-17.04C1526.08,775.72,1523.3101,775.49,1521.02,777.01z"/>
	<path fill="#783E42" stroke="#783E42" stroke-width="0.3" d="M149.53,776.57c2.9,0.75,5.83,1.42,8.65,2.46
		c-29.75,0.09-59.52,0.3-89.27-0.1c4.54-1.55,9.39-0.9,14.09-0.95c17,0.04,34,0,51,0.02C139.19,777.97,144.62,778.75,149.53,776.57z
		"/>
	<path fill="#FEFEFE" stroke="#FEFEFE" stroke-width="0.3" d="M1521.02,777.01c2.29-1.52,5.0599-1.29,7.6899-0.99
		c-6.1,4.21-11.5499,9.81-13.7999,17.04c-1,6.59,0.0699,13.34,2.51,19.52c1.3199,2.87,3.39,5.31,4.95,8.05
		c1.5601,0.4,3.12,0.82,4.6801,1.34c-3.3101,1.1801-6.55-1.0099-8.99-3.04c-5.52-6.13-7.4501-14.84-6.9701-22.89
		C1512.16,788.92,1514.35,780.89,1521.02,777.01z"/>
	<path fill="#F5F306" stroke="#F5F306" stroke-width="0.3" d="M266.27,778.45c0.38-0.21,1.14-0.64,1.52-0.85
		c-0.53,2.5-1.87,4.69-3.64,6.51C264.77,782.26,264.54,779.64,266.27,778.45z"/>
	<path fill="#FBF502" stroke="#FBF502" stroke-width="0.3" d="M272.12,778.01c0.73,0.02,2.21,0.04,2.94,0.05
		c-0.48,1.71-0.87,3.45-1.3,5.19c-1.54,0.02-3.08,0.04-4.62,0.06C270.15,781.54,271.13,779.78,272.12,778.01z"/>
	<path fill="#FDF200" stroke="#FDF200" stroke-width="0.3" d="M278.91,777.91c71.71-0.02,143.43,0.04,215.15-0.03
		c2.65,0.02,5.27,0.49,7.86,1.04c-0.04,1.36-0.08,2.74-0.12,4.12c-0.6,0.05-1.82,0.15-2.42,0.2c-74.03,0.22-148.07,0.1-222.11,0.06
		C277.76,781.48,278.27,779.67,278.91,777.91z"/>
	<path fill="#FEF400" stroke="#FEF400" stroke-width="0.3" d="M68.91,778.93c29.75,0.4,59.52,0.19,89.27,0.1
		c3.48,1.1299,6.56,3.2599,9.03,5.9399c-32.4-0.3-64.81-0.0099-97.2-0.14c-1.78,0.13-3.18-1.05-4.64-1.84
		C66.51,781.59,67.65,780.21,68.91,778.93z"/>
	<path fill="#FEF700" stroke="#FEF700" stroke-width="0.3" d="M166.6,779.38c3.58-0.19,7.16-0.27,10.74-0.45
		c0.83,2.01,1.62,4.04,2.39,6.09c-2.64-0.23-5.29-0.2-7.93-0.17C170.02,783.07,168.36,781.17,166.6,779.38z"/>
	<path fill="#FEF700" stroke="#FEF700" stroke-width="0.3" d="M181.11,779.12c2.96,0.01,5.92,0,8.89-0.05
		c1.11,1.87,2.09,3.83,2.78,5.9c-3.2-0.21-6.41-0.14-9.62-0.14C182.49,782.92,181.83,781,181.11,779.12z"/>
	<path fill="#020101" stroke="#020101" stroke-width="0.3" d="M61.89,784.06c1.16-0.37,2.32-0.72,3.48-1.07
		c1.46,0.79,2.86,1.97,4.64,1.84c32.39,0.13,64.8-0.16,97.2,0.14c0.32,0.35,0.97,1.04,1.29,1.38c-7.12,1.1-14.34,0.4301-21.5,0.58
		c-28.29-0.09-56.59,0.19-84.88-0.14C62.06,786.11,61.95,784.75,61.89,784.06z"/>
	<path fill="#010101" stroke="#010101" stroke-width="0.3" d="M252.89,786.89c0.32-1.33,0.62-2.65,0.94-3.96
		c1.29,0.06,2.58,0.12,3.88,0.19c-0.77,1.39-1.6,2.75-2.46,4.1C254.66,787.14,253.48,786.97,252.89,786.89z"/>
	<path fill="#020201" stroke="#020201" stroke-width="0.3" d="M269.14,783.31c1.54-0.02,3.08-0.04,4.62-0.06
		c-0.36,1.45-0.79,2.89-1.23,4.34c-1.67-0.51-3.34-1-5-1.51C268.07,785.15,268.6,784.22,269.14,783.31z"/>
	<path fill="#020101" stroke="#020101" stroke-width="0.3" d="M277.27,783.3c74.04,0.04,148.08,0.16,222.11-0.06
		c0.07,1.09,0.15,2.19,0.13,3.31c-4.8,0.81-9.68,0.34-14.51,0.41c-67.34,0.0099-134.69-0.02-202.03,0.02
		c-2.18-0.06-4.34-0.33-6.48-0.7C276.69,785.54,277.08,784.04,277.27,783.3z"/>
	<path fill="#040302" stroke="#040302" stroke-width="0.3" d="M214.13,784.19c1.58-0.52,2.12,0.04,1.61,1.67
		C214.13,786.4,213.59,785.84,214.13,784.19z"/>
	<path fill="#030201" stroke="#030201" stroke-width="0.3" d="M218.73,783.95c2,0.07,4.01,0.15,6.01,0.27
		c0.04,0.7,0.11,2.09,0.15,2.78c-2-0.01-4-0.01-6,0.01C218.85,786.24,218.77,784.72,218.73,783.95z"/>
	<path fill="#1C2405" stroke="#1C2405" stroke-width="0.3" d="M227.73,784.95c0.9-2.45,2.82,0.97,1.91,2.26
		c-0.41-0.11-1.22-0.32-1.63-0.43C227.94,786.32,227.8,785.4,227.73,784.95z"/>
	<path fill="#030201" stroke="#030201" stroke-width="0.3" d="M233.16,784c1.59-0.01,3.19-0.01,4.79,0c0.32,0.99,0.64,1.99,0.94,3
		c-1.9,0-3.81,0.02-5.71,0.04C233.18,786.28,233.16,784.76,233.16,784z"/>
	<path fill="#0E1004" stroke="#0E1004" stroke-width="0.3" d="M171.8,784.85c2.64-0.03,5.29-0.06,7.93,0.17
		c0.16,0.44,0.48,1.32,0.64,1.76c-2.06,0.12-4.12,0.23-6.18,0.35C173.38,786.37,172.59,785.61,171.8,784.85z"/>
	<path fill="#050302" stroke="#050302" stroke-width="0.3" d="M183.16,784.83c3.21,0,6.42-0.07,9.62,0.14
		c0.1,0.47,0.28,1.42,0.38,1.89c-3.08,0.08-6.15,0.12-9.22,0.17C183.75,786.48,183.36,785.38,183.16,784.83z"/>
	<path fill="#020201" stroke="#020201" stroke-width="0.3" d="M198.04,785.36c1.72-0.07,3.44-0.15,5.16-0.24
		c0.02,0.47,0.04,1.42,0.06,1.89c-1.46,0.03-2.91,0.07-4.36,0.13C198.68,786.69,198.25,785.8,198.04,785.36z"/>
	<path fill="#070703" stroke="#070703" stroke-width="0.3" d="M207.17,784.77c1.45,0.06,2.9,0.19,4.34,0.39
		c0.06,0.48,0.18,1.4301,0.24,1.91c-1.59-0.06-3.18-0.1-4.77-0.14C207.03,786.39,207.12,785.31,207.17,784.77z"/>
	<path fill="#0E1103" stroke="#0E1103" stroke-width="0.3" d="M242.83,784.75c2.02,0.12,4.05,0.28,6.07,0.54
		c-0.04,0.45-0.12,1.35-0.16,1.8c-1.84-0.08-3.69-0.15-5.52-0.3C243.12,786.28,242.93,785.26,242.83,784.75z"/>
	<path fill="#5E5D5E" stroke="#5E5D5E" stroke-width="0.3" d="M1413.4301,793.2c1.4399-0.82,4.7-0.35,4.98,1.47
		C1416.91,795.11,1413.9301,794.73,1413.4301,793.2z"/>
	<path fill="#010101" stroke="#010101" stroke-width="0.3" d="M1451.84,848.67c5.36-0.82,10.7101-2.14,16.1801-1.92
		c-0.05,0.74-0.15,2.22-0.2001,2.96c-8.6499,1.59-17.6399,1.86-25.87,5.21c-12.7899,5.15-23.4099,14.16-35.1499,21.16
		c-1.4501,1.25-3.92-1.29-2.16-2.39c7.62-5.87,15.91-10.82,24.04-15.95C1435.72,853.23,1443.5699,850.01,1451.84,848.67z"/>
	<path fill="#763B43" stroke="#763B43" stroke-width="0.3" d="M553.88,865.05c0.94-0.63,1.97-0.95,3.09-0.98
		c115.34,0,230.69,0.01,346.03,0c4.78,0.05,9.61-0.37,14.34,0.57l-0.9,0.41c-47.81,0.32-95.63,0.05-143.44,0.14c-66,0-132,0-198,0
		C567.96,865.18,560.92,865.26,553.88,865.05z"/>
	<path fill="#FEF500" stroke="#FEF500" stroke-width="0.3" d="M550.74,868.85c-0.24-1.98,1.68-3.0099,3.14-3.8
		c7.04,0.21,14.08,0.13,21.12,0.14c66,0,132,0,198,0c47.81-0.09,95.63,0.18,143.44-0.14c2.51,0.57,3.68,2.46,3.68,4.96
		c-56.04,0.02-112.08,0-168.12,0.01c-9.38-0.63-18.63,1.37-28,0.87c-37.67-0.01-75.34,0-113,0c-18.93,0.12-37.86-0.25-56.78,0.19
		C552.57,871.49,551.17,870.38,550.74,868.85z"/>
	<path fill="#020100" stroke="#020100" stroke-width="0.3" d="M724,870.89c9.37,0.5,18.62-1.5,28-0.87
		c56.04-0.01,112.08,0.01,168.12-0.01c0.5,0,1.5-0.01,2-0.01c1.12,2.58,0.3,5.26-2.63,6c-21.82-0.57-43.66-0.09-65.49-0.25
		c-31.33,0-62.67,0-94,0c-7.42,0.1-14.87-0.33-22.26,0.4c-29.24,0.43-58.49,0.06-87.74,0.19c-31.67-0.06-63.36,0.1-95.03-0.08
		c-2.02-0.46-6.6299,0.05-5.97-3.07c1.58-1.03,3.4-1.63,5.22-2.11c18.92-0.44,37.85-0.07,56.78-0.19
		C648.66,870.89,686.33,870.88,724,870.89z"/>
	<path fill="#A46644" stroke="#A46644" stroke-width="0.3" d="M737.74,876.15c7.39-0.73,14.84-0.3,22.26-0.4c31.33,0,62.67,0,94,0
		c21.83,0.16,43.67-0.32,65.49,0.25l0.87,0.39c-5.08,0.94-10.25,0.45-15.36,0.54c-54.67,0.03-109.35-0.06-164.02,0.04
		C739.85,876.88,738.77,876.6,737.74,876.15z"/>
	<path fill="#FEC90E" stroke="#FEC90E" stroke-width="0.3" d="M1292.45,891.12c3.14,1.12,6.2201,2.42,9.3201,3.7
		c-1.14,7.4-3.4301,14.58-4.78,21.96c-3.28-1.54-6.61-2.96-9.99-4.2401C1288.87,905.41,1290.67,898.27,1292.45,891.12z"/>
	<path fill="#84ADE1" stroke="#84ADE1" stroke-width="0.3" d="M1330.83,892.08c3.25-1.2,6.75-1.13,10.17-1.11
		c3.66,0.03,7.48-0.28,10.9301,1.2401C1344.89,892.17,1337.86,892.38,1330.83,892.08z"/>
	<path fill="#FFC90E" stroke="#FFC90E" stroke-width="0.3" d="M1305.1801,896.39c4.5399,1.24,9.22,0.48,13.8099-0.09
		c-1.46,10.17-1.34,20.49-2.2,30.73c-6.05,0.06-12.05-0.91-18.0801-1.15c0.14-3.02,2.24-5.55,1.8501-8.62
		C1301.74,910.23,1303.7,903.36,1305.1801,896.39z"/>
	<path fill="#BA9100" stroke="#BA9100" stroke-width="0.3" d="M1322.4,896.19c4.12-0.66,8.2899-0.3,12.45-0.25
		c-1.37,4.79-1.62,9.78-2.26,14.69c-0.24,0.28-0.73,0.84-0.98,1.13c-3.5,0.82-7.11,0.94-10.66,1.34
		C1321.96,907.51,1321.51,901.8,1322.4,896.19z"/>
	<path fill="#BB9100" stroke="#BB9100" stroke-width="0.3" d="M1338.23,896.03c3.71-0.15,7.42-0.15,11.13-0.09
		c-0.66,6.7-2.53,13.24-2.78,19.99c-2.6799,0.74-5.46,0.82-8.2,0.75c-0.9301-1.56-2.01-3.03-2.6-4.73
		C1336.1801,906.59,1337.6,901.36,1338.23,896.03z"/>
	<path fill="#7D6100" stroke="#7D6100" stroke-width="0.3" d="M1353.13,896.34c5.67-0.81,9.51,3.92,13.75,6.8
		c-2.11,8.05-3.47,16.27-5.02,24.45c-4.5-1.19-9.03-2.19-13.47-3.55C1350.16,914.84,1351.05,905.48,1353.13,896.34z"/>
	<path fill="#554200" stroke="#554200" stroke-width="0.3" d="M1369.99,905.1c5.4301,2.82,11.13,5.07,16.9301,7.02
		c-1.79,3.79-2.66,9.19-7.0901,10.76c-4.51,0.11-8.64-2.16-12.6799-3.88C1367.85,914.31,1368.86,909.69,1369.99,905.1z"/>
	<path fill="#FEF800" stroke="#FEF800" stroke-width="0.3" d="M44.45,1009.45c-2.59,0.04-1.56-3.79,0.62-3.36
		c12.98-0.15,25.97,0.03,38.95-0.08c4.01-0.09,7.94,0.95,11.96,0.91c19-0.04,38.01-0.01,57.01-0.02c9.68,0.15,19.37-0.34,29.04,0.3
		c30.12,0.49,60.28,0.15,90.42,0.17c0.48,0.06,1.44,0.19,1.92,0.25c5.5,0.92,11.09,0.42,16.63,0.51
		c24.15,0.05,48.29-0.09,72.43,0.08c4.77,1.16,9.7,0.7599,14.56,0.79c24.35,0,48.7-0.01,73.04,0c16.6,1.34,33.29,0.22,49.92,0.73
		c1.77-0.15,2.52,0.72,2.25,2.6c-44.4-0.02-88.8-0.01-133.2,0c-3.02,0-6.01-0.42-9.01-0.56c-29.24-0.25-58.49,0.22-87.72-0.23
		c-5.71-0.92-11.51-0.46-17.27-0.54c-23.68-0.06-47.36,0.12-71.03-0.09c-7.96-0.98-15.98-0.49-23.97-0.62
		c-22-0.06-44,0.01-65.99-0.03C78.19,1008.86,61.27,1010.2,44.45,1009.45z"/>
	<path fill="#763C42" stroke="#763C42" stroke-width="0.3" d="M182.01,1006.1c22.67-0.0699,45.33-0.0099,67.99-0.03
		c7.77,0.31,15.64-0.73,23.34,0.64l-0.89,0.66c-30.14-0.02-60.3,0.32-90.42-0.17L182.01,1006.1z"/>
	<path fill="#763C42" stroke="#763C42" stroke-width="0.3" d="M273.48,1007.48c4.14-0.76,8.35-0.41,12.52-0.43
		c21.33-0.01,42.67-0.01,64,0c4.76,0.03,9.57-0.36,14.29,0.53l-0.86,0.63c-24.14-0.17-48.28-0.03-72.43-0.08
		c-5.54-0.09-11.13,0.41-16.63-0.51L273.48,1007.48z"/>
	<path fill="#010100" stroke="#010100" stroke-width="0.3" d="M44.12,1011.22c3.92-0.64,7.92-0.34,11.88-0.37
		c25-0.05,50,0.26,75,0.15c11.32,0.12,22.66-0.42,33.95,0.64c36.11-0.04,72.22,0.16,108.32-0.1c29.23,0.45,58.48-0.02,87.72,0.23
		c3,0.14,5.99,0.56,9.01,0.56c44.4-0.01,88.8-0.02,133.2,0c1.28-0.01,2.52,0.41,3.67,0.99c0.61,1.42,0.29,3.02,0.37,4.54
		c-74.41,0.32-148.83,0.03-223.24,0.15c-4.02,0.13-7.96-0.74-11.96-0.85c-70.35,0.01-140.7-0.0099-211.04,0.01
		c-3.63-0.06-7.28,0.26-10.89-0.23c-2.4-0.77-4.45-2.37-6.38-3.95C43.83,1012.55,44.02,1011.66,44.12,1011.22z"/>
	<path fill="#794039" stroke="#794039" stroke-width="0.3" d="M884.83,1014.89c3.85-1.62,8.11-0.69,12.17-0.87
		c265.34,0.01,530.6801,0,796.02,0.01c1.0699,0.08,2.1,0.4,3.08,0.98c-203.03,0.04-406.0699,0.01-609.1,0.02
		C1019.61,1014.94,952.22,1015.21,884.83,1014.89z"/>
	<path fill="#FEF63E" stroke="#FEF63E" stroke-width="0.3" d="M882.05,1020.71c-1.73-2.53-0.03-5.28,2.78-5.82
		c67.39,0.32,134.78,0.05,202.17,0.14c203.03-0.01,406.0699,0.02,609.1-0.02c1.3,0.38,2.5701,0.86,3.88,1.33
		c-0.0499,1.6299-0.28,3.25-0.7999,4.8199c-49.7201-0.46-99.4501-0.0699-149.1801-0.2c-56.33,0-112.67,0-169,0
		c-29.5601,0.12-59.13-0.25-88.6801,0.19c-10.09-0.85-20.22-0.25-30.3199-0.42C1135.35,1020.72,1008.7,1020.75,882.05,1020.71z"/>
	<path fill="#010100" stroke="#010100" stroke-width="0.3" d="M1292.3199,1021.15c29.55-0.44,59.12-0.07,88.6801-0.19
		c56.33,0,112.67,0,169,0c49.73,0.13,99.46-0.26,149.1801,0.2c1.34,0.14,2.6399,0.56,3.98,0.95c0.14,2.96-2.05,5.29-5.1,4.86
		c-133.7001,0.0801-267.41-0.02-401.1001,0.04c-1.88,0.05-3.71,0.39-5.5299,0.66c-102.8101,0.11-205.62,0.0199-308.4301,0.0499
		c-33.42,0.0901-66.84-0.1799-100.26,0.14l-1.01,0.02c0.08-1.54-0.31-3.17,0.35-4.6c1.38-1.1,3.16-1.36,4.88-1.36
		c130.68,0.02,261.3599,0,392.04,0.01C1283.4399,1021.96,1287.95,1022.24,1292.3199,1021.15z"/>
	<path fill="#A36644" stroke="#A36644" stroke-width="0.3" d="M882.74,1027.86c33.42-0.3199,66.84-0.0499,100.26-0.14
		c102.8101-0.03,205.62,0.0601,308.4301-0.0499l0.8899,0.6499c-4.72,0.9801-9.5499,0.5701-14.3199,0.6101
		c-130.67,0-261.35,0.0099-392.02,0C884.79,1028.87,883.71,1028.52,882.74,1027.86z"/>
</g>
</svg>
